<svg xmlns="http://www.w3.org/2000/svg" width="252.44" height="140.81" viewBox="0 0 252.44 140.81"><title>logos</title><path d="M204.48,124.36a39.34,39.34,0,0,0,22.74-6.7,38.69,38.69,0,0,0,12.32-12.92,41.67,41.67,0,0,0,5.56-17s7.34-77.23,7.34-77.23h-37s-10.94,113.82-10.93,113.82" style="fill:#c50e1f"/><path d="M169.45,36.41l-5,52.08c-.93,12.46,3.75,18.86,6.65,22.24,5.32,6.16,15.08,11,26.36,13,.31-3.31,10-104.11,10-104.13A18.1,18.1,0,0,0,202.85,6a18.37,18.37,0,0,0-12.44-6H101.87C95.21,0,85.2,6.77,85.2,17.92c0,13.77,12.24,18.5,16.45,18.5h67.8" style="fill:#c50e1f"/><path d="M117.89,113.89h33l6.75-70.07h-33s-5.89,61-6.75,70.06h0" style="fill:#c50e1f"/><path d="M228.33,72.74c-.2,2.07,2.08,3.18,4.23,3.18h3.94a6.92,6.92,0,0,0,.46-2c.21-2.2-1-3.7-4.41-3.7C230,70.21,228.5,71,228.33,72.74Zm10.78,1.38a17.75,17.75,0,0,1-1,4.57H219.77l.26-2.77h5.87a12.4,12.4,0,0,1,2.41.23V76.1a3.84,3.84,0,0,1-2.2-4.09c.3-3.05,2.61-4.73,6.45-4.73,4.41,0,7,2.57,6.54,6.84" style="fill:#fff"/><path d="M229.39,59.31c-.14,1.55.9,2.64,2.65,2.87l.52-5.45A2.82,2.82,0,0,0,229.39,59.31Zm5.32-5.24-.78,8.17c2.89.08,4.29-1.16,4.54-3.8a9.22,9.22,0,0,0-.39-3.7l2.16-.36a12.52,12.52,0,0,1,.39,4.55c-.39,4-2.65,6.15-7.13,6.15-3.82,0-6.5-2.2-6.14-5.93s2.91-5.19,5.8-5.19a12.91,12.91,0,0,1,1.55.1" style="fill:#fff"/><path d="M231.5,44.31c-.73,2.55.92,3.8,4.74,3.8h5.17l-.27,2.77H228.41l.26-2.64a16.72,16.72,0,0,1,2.79.26v-.05c-1.66-.57-3.12-1.86-2.63-4.27l2.67.14" style="fill:#fff"/><path d="M242,41.81l-18.7,0,.26-2.76h18.7L242,41.81" style="fill:#fff"/><path d="M242.65,35.26H229.92l.26-2.77h12.74ZM227.8,33.85a2,2,0,0,1-1.89,1.78,1.57,1.57,0,0,1-1.55-1.78,2,2,0,0,1,1.89-1.76,1.56,1.56,0,0,1,1.55,1.76" style="fill:#fff"/><path d="M244.05,20.68h-8.17c-1.59,0-2.58.43-2.72,1.91-.19,1.94,1.7,3.36,4.26,3.36h6.12l-.26,2.76H230.55l.25-2.63a16.14,16.14,0,0,1,2.49.18v0A4.21,4.21,0,0,1,231,21.76c.28-2.92,2.21-3.83,4.44-3.83h8.91l-.26,2.74" style="fill:#fff"/><path d="M11.24,74.32,10,87.27H7.57l1.24-13H4.7l.2-2H15.57l-.2,2H11.24" style="fill:#c50e1f"/><path d="M19.78,77.79a2.89,2.89,0,0,0-2.71,2.53h4.69C22,78.76,21.18,77.79,19.78,77.79ZM23.89,82h-7c-.31,2.51.65,3.62,2.92,3.62A8.78,8.78,0,0,0,23,84.94l.13,1.84a11.56,11.56,0,0,1-4,.71c-3.4,0-5.11-1.77-4.74-5.66.32-3.31,2.45-5.82,5.65-5.82s4.26,2.09,4,4.6A10.15,10.15,0,0,1,23.89,82" style="fill:#c50e1f"/><path d="M30.27,87.45c-2.85,0-4.78-1.4-4.4-5.33.34-3.51,2.38-6.07,6.07-6.07a6.9,6.9,0,0,1,2.54.43l-.6,2A6,6,0,0,0,31.62,78c-1.87,0-3,1.56-3.24,3.82-.19,2,.37,3.56,2.55,3.56a5.9,5.9,0,0,0,2.43-.49l.16,2a9.1,9.1,0,0,1-3.25.56" style="fill:#c50e1f"/><path d="M42.61,87.27l.68-7.08c.13-1.38-.16-2.2-1.43-2.2-1.67,0-3.06,1.75-3.27,4l-.51,5.31H35.7l1.56-16.21h2.38l-.48,5a10.76,10.76,0,0,1-.42,2.22l0,0a4.42,4.42,0,0,1,4-2.31c2.51,0,3.14,1.6,3,3.53L45,87.27H42.61" style="fill:#c50e1f"/><path d="M55.14,87.27l.68-7.08c.13-1.38-.17-2.2-1.43-2.2-1.67,0-3.06,1.75-3.28,4l-.51,5.31H48.23l1.06-11h2.27a15.52,15.52,0,0,1-.37,2.18h0A4.53,4.53,0,0,1,55.29,76c2.51,0,3.13,1.6,3,3.53l-.75,7.73H55.14" style="fill:#c50e1f"/><path d="M63.19,74.28a1.34,1.34,0,0,1-1.39-1.49,1.71,1.71,0,0,1,1.68-1.49,1.36,1.36,0,0,1,1.37,1.49A1.71,1.71,0,0,1,63.19,74.28Zm-2.45,13,1.06-11h2.38l-1.06,11H60.74" style="fill:#c50e1f"/><path d="M68.24,87.49a9,9,0,0,1-2.41-.31l.37-2a6.6,6.6,0,0,0,2.38.42c1.25,0,2.17-.55,2.25-1.44.22-2.27-4.76-.89-4.39-4.71.19-1.93,1.8-3.42,4.84-3.42a10.84,10.84,0,0,1,2.07.22L73,78.14A6.89,6.89,0,0,0,71,77.83c-1.31,0-2,.53-2.06,1.38-.21,2.17,4.79,1,4.43,4.69-.2,2.08-2.16,3.59-5.1,3.59" style="fill:#c50e1f"/><path d="M79.79,87.45c-2.84,0-4.77-1.4-4.39-5.33.33-3.51,2.38-6.07,6.07-6.07a6.81,6.81,0,0,1,2.53.43l-.59,2A6,6,0,0,0,81.14,78c-1.86,0-3,1.56-3.23,3.82-.2,2,.37,3.56,2.55,3.56a5.85,5.85,0,0,0,2.42-.49l.17,2a9.15,9.15,0,0,1-3.26.56" style="fill:#c50e1f"/><path d="M92.14,87.27l.68-7.08c.13-1.38-.17-2.2-1.43-2.2-1.67,0-3.06,1.75-3.27,4l-.52,5.31H85.23l1.56-16.21h2.38l-.49,5a10.75,10.75,0,0,1-.41,2.22l0,0a4.42,4.42,0,0,1,4-2.31c2.51,0,3.13,1.6,2.95,3.53l-.75,7.73H92.14" style="fill:#c50e1f"/><path d="M102.71,77.79A2.89,2.89,0,0,0,100,80.32h4.69C104.89,78.76,104.11,77.79,102.71,77.79ZM106.82,82h-7c-.31,2.51.65,3.62,2.92,3.62a8.82,8.82,0,0,0,3.24-.64l.13,1.84a11.56,11.56,0,0,1-4,.71c-3.4,0-5.12-1.77-4.74-5.66C97.69,78.52,99.82,76,103,76s4.26,2.09,4,4.6a10.15,10.15,0,0,1-.22,1.35" style="fill:#c50e1f"/><path d="M5.24,114.15c-4.71,0-5.46-2.57-5.19-5.33l1-9.88H3.42l-.93,9.7c-.2,2,.32,3.51,3.1,3.51,2.45,0,3.66-1,3.92-3.82l.91-9.39H12.8l-.89,9.22c-.39,4-2.73,6-6.67,6" style="fill:#c50e1f"/><path d="M21.59,113.93l.68-7.08c.13-1.38-.17-2.2-1.43-2.2-1.67,0-3.06,1.75-3.28,4l-.51,5.31H14.68l1.06-11H18a15.52,15.52,0,0,1-.37,2.18h0a4.53,4.53,0,0,1,4.08-2.4c2.51,0,3.13,1.6,3,3.53l-.75,7.73H21.59" style="fill:#c50e1f"/><path d="M29.64,100.94a1.34,1.34,0,0,1-1.39-1.49A1.71,1.71,0,0,1,29.93,98a1.35,1.35,0,0,1,1.37,1.49A1.71,1.71,0,0,1,29.64,100.94Zm-2.45,13,1.06-11h2.38l-1.06,11H27.19" style="fill:#c50e1f"/><path d="M38,113.93H35.61l-3.07-11h2.62l1.51,5.84c.17.76.36,1.54.49,2.27h0c.25-.69.57-1.47.86-2.18l2.68-5.93h2.55l-5.24,11" style="fill:#c50e1f"/><path d="M48.86,104.45A2.87,2.87,0,0,0,46.15,107h4.69C51,105.42,50.26,104.45,48.86,104.45ZM53,108.62h-7c-.3,2.51.66,3.62,2.92,3.62a8.78,8.78,0,0,0,3.24-.64l.14,1.84a11.61,11.61,0,0,1-4,.71c-3.4,0-5.12-1.77-4.75-5.66.32-3.31,2.45-5.82,5.65-5.82s4.27,2.09,4,4.6a12.09,12.09,0,0,1-.22,1.35" style="fill:#c50e1f"/><path d="M61.71,105c-2.16-.42-3.37,1.11-3.69,4.42l-.43,4.49H55.21l1.06-11h2.27a15,15,0,0,1-.46,2.44h0a3.81,3.81,0,0,1,3.93-2.64L61.71,105" style="fill:#c50e1f"/><path d="M65.12,114.15a9,9,0,0,1-2.41-.31l.37-2a6.6,6.6,0,0,0,2.38.42c1.25,0,2.17-.55,2.25-1.44.22-2.27-4.76-.89-4.39-4.71.19-1.93,1.8-3.42,4.84-3.42a10.84,10.84,0,0,1,2.07.22l-.32,1.91a6.84,6.84,0,0,0-2.06-.31c-1.31,0-2,.53-2.06,1.38-.21,2.17,4.79,1,4.44,4.69-.21,2.08-2.17,3.59-5.11,3.59" style="fill:#c50e1f"/><path d="M74.82,100.94a1.34,1.34,0,0,1-1.39-1.49A1.71,1.71,0,0,1,75.11,98a1.35,1.35,0,0,1,1.37,1.49A1.71,1.71,0,0,1,74.82,100.94Zm-2.45,13,1.06-11h2.38l-1.06,11H72.37" style="fill:#c50e1f"/><path d="M81.8,114.13c-2.36,0-3-.91-2.74-3.37l.58-6H77.52l.18-1.85h2.11l.34-3.51,2.44-.64-.4,4.15h2.89l-.18,1.85H82L81.5,110c-.15,1.65.14,2.09,1.25,2.09a6.44,6.44,0,0,0,1.37-.16v1.91a11.17,11.17,0,0,1-2.33.27" style="fill:#c50e1f"/><path d="M94.1,100.8a1.2,1.2,0,0,1-1.22-1.35,1.51,1.51,0,0,1,1.48-1.33,1.19,1.19,0,0,1,1.21,1.33A1.51,1.51,0,0,1,94.1,100.8Zm-4.37,0a1.19,1.19,0,0,1-1.21-1.35A1.5,1.5,0,0,1,90,98.12a1.19,1.19,0,0,1,1.22,1.33A1.51,1.51,0,0,1,89.73,100.8Zm3.11,8.07c-3.29,0-4.29.89-4.39,1.93a1.29,1.29,0,0,0,1.37,1.49,3.33,3.33,0,0,0,3-3.13Zm-.33,5.06a14.84,14.84,0,0,1,.31-2l0,0a4.31,4.31,0,0,1-3.88,2.28,2.6,2.6,0,0,1-2.79-3.06c.23-2.49,2.83-3.82,6.87-3.82l.05-.47c.15-1.55-.34-2.29-2-2.29a9.59,9.59,0,0,0-3.41.78l-.24-1.84a12,12,0,0,1,4.16-.78c3.22,0,4.08,1.47,3.85,3.86L95,110.91c-.09,1-.18,2.09-.22,3H92.51" style="fill:#c50e1f"/><path d="M101.74,114.13c-2.35,0-3-.91-2.74-3.37l.58-6H97.47l.18-1.85h2.11l.34-3.51,2.44-.64-.4,4.15H105l-.18,1.85H102l-.51,5.28c-.16,1.65.13,2.09,1.24,2.09a6.53,6.53,0,0,0,1.38-.16v1.91a11.18,11.18,0,0,1-2.34.27" style="fill:#c50e1f"/><path d="M53.42,127.44c-.64,0-1.29,0-1.82,0L51.17,132c.39,0,.77,0,1.28,0,2.25,0,3.38-.91,3.52-2.42C56.09,128.33,55.49,127.44,53.42,127.44Zm-1.1,6.33c-.22,0-1,0-1.33,0l-.46,4.8c.37,0,1.19.11,1.76.11,2.2,0,3.33-1.09,3.47-2.55C55.92,134.46,54.57,133.77,52.32,133.77ZM52,140.66c-1,0-2.39,0-4.06-.07l1.45-15c1.18,0,2.85-.07,4.67-.07,3.2,0,4.76,1.33,4.53,3.64a4,4,0,0,1-2.77,3.42v0a3,3,0,0,1,2.56,3.42c-.21,2.15-2,4.6-6.38,4.6" style="fill:#c50e1f"/><path d="M65.78,131.11a2.89,2.89,0,0,0-2.71,2.53h4.69C68,132.08,67.18,131.11,65.78,131.11Zm4.11,4.17h-7c-.31,2.51.65,3.62,2.91,3.62a8.78,8.78,0,0,0,3.24-.64l.14,1.84a11.56,11.56,0,0,1-4,.71c-3.4,0-5.12-1.77-4.74-5.66.31-3.31,2.44-5.82,5.64-5.82s4.27,2.09,4,4.6a12.09,12.09,0,0,1-.22,1.35" style="fill:#c50e1f"/><path d="M78.63,131.68c-2.16-.42-3.37,1.11-3.69,4.42l-.43,4.49H72.13l1.06-11h2.27A15.34,15.34,0,0,1,75,132h0A3.79,3.79,0,0,1,79,129.35l-.34,2.33" style="fill:#c50e1f"/><path d="M79.94,140.59l1.56-16.22h2.38l-1.56,16.22H79.94" style="fill:#c50e1f"/><path d="M88,127.6a1.34,1.34,0,0,1-1.39-1.49,1.71,1.71,0,0,1,1.68-1.49,1.34,1.34,0,0,1,1.36,1.49A1.7,1.7,0,0,1,88,127.6Zm-2.45,13,1.06-11H89l-1.06,11H85.59" style="fill:#c50e1f"/><path d="M98.13,140.59l.68-7.09c.14-1.37-.16-2.19-1.43-2.19-1.67,0-3.06,1.75-3.27,4l-.51,5.31H91.22l1.06-11h2.27a14.2,14.2,0,0,1-.37,2.18h0a4.53,4.53,0,0,1,4.07-2.4c2.51,0,3.14,1.6,3,3.53l-.74,7.73H98.13" style="fill:#c50e1f"/></svg>