<svg xmlns="http://www.w3.org/2000/svg" width="351.08" height="140.81" viewBox="0 0 351.08 140.81"><title>logos</title><polygon points="0 23.83 0 66.71 0 67.21 0.51 67.21 43.38 67.21 43.89 67.21 43.89 66.71 43.89 23.83 43.89 23.33 43.38 23.33 0.51 23.33 0 23.33 0 23.83 0 23.83" style="fill:#003263"/><polygon points="0 23.83 0 66.71 0 67.21 0.51 67.21 43.38 67.21 43.89 67.21 43.89 66.71 43.89 23.83 43.89 23.33 43.38 23.33 0.51 23.33 0 23.33 0 23.83 0 23.83" style="fill:none;stroke:#fff;stroke-width:0.6649450063705444px"/><polygon points="0 71.05 0 113.92 0 114.42 0.51 114.42 43.37 114.42 43.88 114.42 43.88 113.92 43.88 71.05 43.88 70.55 43.37 70.55 0.51 70.55 0 70.55 0 71.05 0 71.05" style="fill:#f7941d"/><polygon points="0 71.05 0 113.92 0 114.42 0.51 114.42 43.37 114.42 43.88 114.42 43.88 113.92 43.88 71.05 43.88 70.55 43.37 70.55 0.51 70.55 0 70.55 0 71.05 0 71.05" style="fill:none;stroke:#fff;stroke-width:0.6693779826164246px"/><polygon points="298.85 113.89 304.35 113.89 304.35 98.55 317.68 113.89 325.57 113.89 309.96 97.26 323.82 84.03 316.33 84.03 304.35 96.15 304.35 71.13 298.85 71.13 298.85 113.89 298.85 113.89" style="fill:#003263"/><path d="M178.69,113.89H184v-4.21h.12c1.46,2.23,4.86,4.92,10.18,4.92,9,0,12.8-8,12.8-16.14,0-8-4.21-15.09-12.86-15.09-5.21,0-8.19,2-9.88,4.8h-.12v-17h-5.5v42.69Zm22.51-15c.12,4.67-2.34,11.28-8.24,11.28-6.2,0-8.77-6.14-8.77-11.11,0-5.55,2.86-11.22,8.83-11.22s8.3,5.67,8.18,11.05Z" style="fill:#003263"/><polygon points="68.97 113.86 74.46 113.86 74.46 84.04 68.97 84.04 68.97 113.86 68.97 113.86" style="fill:#003263"/><polygon points="68.97 76.5 74.46 76.5 74.46 71 68.97 71 68.97 76.5 68.97 76.5" style="fill:#003263"/><path d="M84.51,113.89H90V100.1c0-7.25,2.8-12.28,9.06-12.28,4.79.29,6.31,3.68,6.31,10.64v15.43h5.5V96.18c0-8-3.45-12.81-11.17-12.81-4.15,0-8.12,2-9.76,5.44h-.12V84.08H84.51v29.81Zm35.72,0h5.5V100.1c0-7.25,2.81-12.28,9.06-12.28,4.8.29,6.32,3.68,6.32,10.64v15.43h5.49V96.18c0-8-3.45-12.81-11.16-12.81-4.16,0-8.13,2-9.77,5.44h-.12V84.08h-5.32v29.81Zm33.21-.93a17.22,17.22,0,0,0,8.19,1.64c5.32,0,10.41-2.93,10.41-9.3,0-9.53-12.92-7.78-12.92-13.86,0-2.45,2.45-3.62,5.26-3.62a16,16,0,0,1,5.78,1.52l.47-4.8a23,23,0,0,0-6.84-1.17c-5.9,0-10.52,3-10.52,9.18,0,8.36,12.92,7.9,12.92,13.33,0,3.22-3.1,4.27-5.61,4.27a14.68,14.68,0,0,1-6.84-2.1l-.3,4.91Zm61,.93h5.5V100.33c0-7.48,3.22-12.16,8.13-12.16a8.15,8.15,0,0,1,3,.52V83.78a15.74,15.74,0,0,0-3.63-.41,9.09,9.09,0,0,0-7.77,5.32h-.12V84.08h-5.15v29.81Zm49.12-29.81H258V97.87c0,7.25-2.8,12.28-9.06,12.28-4.8-.29-6.32-3.68-6.32-10.64V84.08h-5.49v17.71c0,8,3.45,12.81,11.17,12.81,4.15,0,8.12-2,9.76-5.44h.12v4.73h5.32V84.08Zm28.76.46a20.64,20.64,0,0,0-6.66-1.17c-9.12,0-15.2,6.55-15.2,15.61,0,8.54,6.19,15.62,15.2,15.62a16.8,16.8,0,0,0,6.9-1.23l-.41-4.91a11.51,11.51,0,0,1-5.91,1.69c-7.07,0-9.94-5.84-9.94-11.17,0-5.67,3.45-11.16,9.59-11.16a16.07,16.07,0,0,1,6,1.28l.46-4.56Z" style="fill:#003263"/><path d="M295.38,36.76h-7.89V26.57L282,28.32v8.44h-6.73v4.45H282V58.63c0,6,3.5,8.65,9.17,8.65a17.24,17.24,0,0,0,4.68-.82V61.79a6.83,6.83,0,0,1-3.74,1.05c-2.51,0-4.62-1.87-4.62-5.32V41.21h7.89V36.76Z" style="fill:#003263"/><path d="M350.61,36.76h-7.89V26.57l-5.49,1.75v8.44H330.5v4.45h6.73V58.63c0,6,3.5,8.65,9.18,8.65a17.24,17.24,0,0,0,4.67-.82V61.79a6.83,6.83,0,0,1-3.74,1.05c-2.51,0-4.62-1.87-4.62-5.32V41.21h7.89V36.76Z" style="fill:#003263"/><polygon points="263.96 29.33 269.45 29.33 269.45 23.83 263.96 23.83 263.96 29.33 263.96 29.33" style="fill:#003263"/><polygon points="140.49 29.33 145.98 29.33 145.98 23.83 140.49 23.83 140.49 29.33 140.49 29.33" style="fill:#003263"/><polygon points="306.3 32.08 311.8 32.08 311.8 26.58 306.3 26.58 306.3 32.08 306.3 32.08" style="fill:#003263"/><polygon points="315.84 32.08 321.33 32.08 321.33 26.58 315.84 26.58 315.84 32.08 315.84 32.08" style="fill:#003263"/><path d="M94.7,36.88H89.21V50.67C89.21,57.92,86.4,63,80.14,63c-4.79-.29-6.31-3.68-6.31-10.64V36.88h-5.5V54.59c0,8,3.45,12.81,11.17,12.81,4.15,0,8.13-2.05,9.76-5.44h.12v4.73H94.7V36.88Zm9.36,29.81h5.49V52.9c0-7.25,2.81-12.28,9.06-12.28,4.8.29,6.32,3.68,6.32,10.64V66.69h5.5V49c0-8-3.45-12.81-11.17-12.81-4.15,0-8.13,2-9.77,5.44h-.11V36.88h-5.32V66.69Zm36.42,0H146V36.88h-5.5V66.69ZM180,36.88h-5.5L166.21,61.2h-.12L158,36.88h-6l10.7,29.81h6.55L180,36.88ZM208.13,60A17.67,17.67,0,0,1,199,63,9.75,9.75,0,0,1,189.13,53h21.28c0-9.59-3.22-16.84-13.16-16.84-8.42,0-14,6.26-14,15.09,0,9.7,4.85,16.14,15.44,16.14a22.84,22.84,0,0,0,9.41-1.93V60Zm-19-11c.41-3.86,2.63-8.3,8-8.3,4.73,0,7.42,3.74,7.42,8.3Zm28.65,17.77h5.49V53.13c0-7.48,3.22-12.16,8.13-12.16a8.32,8.32,0,0,1,3,.52V36.58a15.74,15.74,0,0,0-3.63-.41A9.09,9.09,0,0,0,223,41.49h-.12V36.88h-5.14V66.69ZM238,65.76a17.18,17.18,0,0,0,8.18,1.64c5.32,0,10.41-2.93,10.41-9.3,0-9.53-12.92-7.78-12.92-13.86,0-2.45,2.45-3.62,5.26-3.62a16.06,16.06,0,0,1,5.79,1.52l.47-4.8a23.11,23.11,0,0,0-6.85-1.17c-5.9,0-10.52,3-10.52,9.18,0,8.36,12.92,7.9,12.92,13.33,0,3.22-3.1,4.27-5.61,4.27a14.68,14.68,0,0,1-6.84-2.1L238,65.76Zm26,.93h5.49V36.88H264V66.69Zm40-23a14,14,0,0,1,8.65-3c5.5,0,7.37,2.63,7.37,7.77-2.17-.11-3.69-.11-5.85-.11-5.67,0-13.86,2.34-13.86,9.82,0,6.49,4.51,9.3,10.94,9.3a11.09,11.09,0,0,0,9.24-4.56h.11v3.85h5.15a45.73,45.73,0,0,1-.24-5.84V48.51c0-8.13-3.45-12.34-12-12.34A19,19,0,0,0,303.66,39l.3,4.68Zm16,11.46c0,4.44-2.87,7.83-8.31,7.83-2.51,0-5.55-1.69-5.55-4.85,0-5.26,7.37-5.73,10.35-5.73,1.17,0,2.34.12,3.51.12v2.63Z" style="fill:#003263"/></svg>