<svg xmlns="http://www.w3.org/2000/svg" viewBox="0 0 275.31 275.25"><defs><style>.cls-1,.cls-10,.cls-4,.cls-8{fill:#fff;}.cls-1,.cls-11,.cls-13,.cls-14,.cls-15,.cls-2,.cls-3,.cls-5,.cls-6,.cls-7,.cls-8,.cls-9{stroke:#000;stroke-miterlimit:3.86;}.cls-2{fill:#c68c52;}.cls-13,.cls-3{fill:none;}.cls-4,.cls-8{fill-rule:evenodd;}.cls-5{fill:#ffd600;}.cls-6{fill:#0a609d;}.cls-12,.cls-7{fill:#ffb573;}.cls-9{fill:#ef3121;}.cls-11{fill:#231f20;}.cls-13{stroke-width:0.28px;}.cls-14{fill:#ff8c00;}.cls-15{fill:#f7ce00;}</style></defs><title>Asset 1</title><g id="Layer_2" data-name="Layer 2"><g id="Layer_1-2" data-name="Layer 1"><path class="cls-1" d="M.5,137.63A137.16,137.16,0,1,1,137.66,274.75,137.15,137.15,0,0,1,.5,137.63Z"/><path class="cls-2" d="M.5,137.63A137.16,137.16,0,1,1,137.66,274.75,137.15,137.15,0,0,1,.5,137.63Z"/><path class="cls-1" d="M33.87,181.07l-4.51-.65a5.24,5.24,0,0,0,.13-3.71,2.53,2.53,0,0,0-.88-1.25,1.44,1.44,0,0,0-1.44-.32c-.77.26-1.13,1.2-1.06,2.82l.06,1.39a8.91,8.91,0,0,1-.6,3.93,4.81,4.81,0,0,1-3,2.55q-3.46,1.2-5.8-.2a8.58,8.58,0,0,1-3.66-4.79,12.14,12.14,0,0,1-.13-7.43l4.72.74a7.18,7.18,0,0,0-.46,5.08,3.06,3.06,0,0,0,1,1.5A1.76,1.76,0,0,0,20,181a1.78,1.78,0,0,0,1.11-1.62,9.82,9.82,0,0,0,0-2.13,11.05,11.05,0,0,1,.35-4.29,4.94,4.94,0,0,1,3.25-2.71,6.42,6.42,0,0,1,5.26.26,6.9,6.9,0,0,1,3.39,4.11,12.59,12.59,0,0,1,.48,6.49Z"/><path class="cls-3" d="M33.87,181.07l-4.51-.65a5.24,5.24,0,0,0,.13-3.71,2.53,2.53,0,0,0-.88-1.25,1.44,1.44,0,0,0-1.44-.32c-.77.26-1.13,1.2-1.06,2.82l.06,1.39a8.91,8.91,0,0,1-.6,3.93,4.81,4.81,0,0,1-3,2.55q-3.46,1.2-5.8-.2a8.58,8.58,0,0,1-3.66-4.79,12.14,12.14,0,0,1-.13-7.43l4.72.74a7.18,7.18,0,0,0-.46,5.08,3.06,3.06,0,0,0,1,1.5A1.76,1.76,0,0,0,20,181a1.78,1.78,0,0,0,1.11-1.62,9.82,9.82,0,0,0,0-2.13,11.05,11.05,0,0,1,.35-4.29,4.94,4.94,0,0,1,3.25-2.71,6.42,6.42,0,0,1,5.26.26,6.9,6.9,0,0,1,3.39,4.11,12.59,12.59,0,0,1,.48,6.49Z"/><polygon class="cls-1" points="37.61 195.47 23.89 203.08 21.35 198.51 35.07 190.9 32.98 187.12 36.86 184.97 43.59 197.11 39.71 199.25 37.61 195.47 37.61 195.47"/><polygon class="cls-3" points="37.61 195.47 23.89 203.08 21.35 198.51 35.07 190.9 32.98 187.12 36.86 184.97 43.59 197.11 39.71 199.25 37.61 195.47 37.61 195.47"/><path class="cls-1" d="M53.84,210.66l3.23,4.12-8.92,7a19.43,19.43,0,0,1-3.17,2.1,6.76,6.76,0,0,1-3.73.61q-3.18-.44-5.87-3.88T33,213.94a6.64,6.64,0,0,1,1.5-3.46,18.25,18.25,0,0,1,2.8-2.57l8.92-7,3.22,4.12-8.35,6.53a10,10,0,0,0-2.61,2.68,3,3,0,0,0,.48,3.48,3,3,0,0,0,3.27,1.32,10,10,0,0,0,3.23-1.89l8.35-6.52Z"/><path class="cls-3" d="M53.84,210.66l3.23,4.12-8.92,7a19.43,19.43,0,0,1-3.17,2.1,6.76,6.76,0,0,1-3.73.61q-3.18-.44-5.87-3.88T33,213.94a6.64,6.64,0,0,1,1.5-3.46,18.25,18.25,0,0,1,2.8-2.57l8.92-7,3.22,4.12-8.35,6.53a10,10,0,0,0-2.61,2.68,3,3,0,0,0,.48,3.48,3,3,0,0,0,3.27,1.32,10,10,0,0,0,3.23-1.89l8.35-6.52Z"/><path class="cls-4" d="M63.12,225.83l-6.93,8.88.92.72a6,6,0,0,0,4,1.45,6.19,6.19,0,0,0,5.32-6.55,5.8,5.8,0,0,0-2.35-3.74l-1-.76ZM49.33,235l12.39-15.86,5.85,4.57a9.91,9.91,0,0,1,3.87,6.75,9.51,9.51,0,0,1-2,7.47,9.6,9.6,0,0,1-6.78,3.78,10,10,0,0,1-7.47-2.14L49.33,235Z"/><path class="cls-3" d="M63.12,225.83l-6.93,8.88.92.72a6,6,0,0,0,4,1.45,6.19,6.19,0,0,0,5.32-6.55,5.8,5.8,0,0,0-2.35-3.74l-1-.76ZM49.33,235l12.39-15.86,5.85,4.57a9.91,9.91,0,0,1,3.87,6.75,9.51,9.51,0,0,1-2,7.47,9.6,9.6,0,0,1-6.78,3.78,10,10,0,0,1-7.47-2.14L49.33,235Zm13.79-9.15-6.93,8.88.92.72a6,6,0,0,0,4,1.45,6.19,6.19,0,0,0,5.32-6.55,5.8,5.8,0,0,0-2.35-3.74l-1-.76ZM49.33,235l12.39-15.86,5.85,4.57a9.91,9.91,0,0,1,3.87,6.75,9.51,9.51,0,0,1-2,7.47,9.6,9.6,0,0,1-6.78,3.78,10,10,0,0,1-7.47-2.14L49.33,235Z"/><polygon class="cls-1" points="84.68 235.32 74.62 252.74 70.09 250.13 80.15 232.7 84.68 235.32 84.68 235.32"/><polygon class="cls-3" points="84.68 235.32 74.62 252.74 70.09 250.13 80.15 232.7 84.68 235.32 84.68 235.32"/><path class="cls-1" d="M101.5,243l4.85,2-4.24,10.49a17.78,17.78,0,0,1-1.7,3.41,6.69,6.69,0,0,1-2.92,2.39q-3,1.21-7-.42t-5.35-4.58a6.73,6.73,0,0,1-.44-3.75,17.8,17.8,0,0,1,1.14-3.62l4.24-10.5,4.85,2-4,9.82a10.07,10.07,0,0,0-.92,3.64,3.52,3.52,0,0,0,5.65,2.28,10.07,10.07,0,0,0,1.86-3.25l4-9.83Z"/><path class="cls-3" d="M101.5,243l4.85,2-4.24,10.49a17.78,17.78,0,0,1-1.7,3.41,6.69,6.69,0,0,1-2.92,2.39q-3,1.21-7-.42t-5.35-4.58a6.73,6.73,0,0,1-.44-3.75,17.8,17.8,0,0,1,1.14-3.62l4.24-10.5,4.85,2-4,9.82a10.07,10.07,0,0,0-.92,3.64,3.52,3.52,0,0,0,5.65,2.28,10.07,10.07,0,0,0,1.86-3.25l4-9.83Z"/><polygon class="cls-1" points="108.92 266.35 114.77 246.79 119.88 247.42 122.62 258.6 128.23 248.45 133.39 249.08 133.96 269.42 128.77 268.79 128.72 257.11 128.66 257.11 122.46 268.01 120.4 267.76 117.23 255.7 117.17 255.69 114.08 266.99 108.92 266.35 108.92 266.35"/><polygon class="cls-3" points="108.92 266.35 114.77 246.79 119.88 247.42 122.62 258.6 128.23 248.45 133.39 249.08 133.96 269.42 128.77 268.79 128.72 257.11 128.66 257.11 122.46 268.01 120.4 267.76 117.23 255.7 117.17 255.69 114.08 266.99 108.92 266.35 108.92 266.35"/><path class="cls-1" d="M166.63,246.51l-1.34,4.35a5.35,5.35,0,0,0-3.65-.71,2.55,2.55,0,0,0-1.37.68,1.38,1.38,0,0,0-.54,1.36c.13.81,1,1.31,2.61,1.49l1.39.17a8.81,8.81,0,0,1,3.79,1.2,4.84,4.84,0,0,1,2,3.35c.42,2.4.06,4.3-1.1,5.7a8.66,8.66,0,0,1-5.3,2.86,12.16,12.16,0,0,1-7.37-1l1.48-4.54a7.17,7.17,0,0,0,4.93,1.25,3.15,3.15,0,0,0,1.66-.82,1.73,1.73,0,0,0,.49-1.62c-.11-.64-.59-1.08-1.43-1.35a9.17,9.17,0,0,0-2.1-.36,11,11,0,0,1-4.19-1,4.89,4.89,0,0,1-2.16-3.63,6.45,6.45,0,0,1,1.07-5.15,6.89,6.89,0,0,1,4.59-2.7,12.44,12.44,0,0,1,6.49.54Z"/><path class="cls-3" d="M166.63,246.51l-1.34,4.35a5.35,5.35,0,0,0-3.65-.71,2.55,2.55,0,0,0-1.37.68,1.38,1.38,0,0,0-.54,1.36c.13.81,1,1.31,2.61,1.49l1.39.17a8.81,8.81,0,0,1,3.79,1.2,4.84,4.84,0,0,1,2,3.35c.42,2.4.06,4.3-1.1,5.7a8.66,8.66,0,0,1-5.3,2.86,12.16,12.16,0,0,1-7.37-1l1.48-4.54a7.17,7.17,0,0,0,4.93,1.25,3.15,3.15,0,0,0,1.66-.82,1.73,1.73,0,0,0,.49-1.62c-.11-.64-.59-1.08-1.43-1.35a9.17,9.17,0,0,0-2.1-.36,11,11,0,0,1-4.19-1,4.89,4.89,0,0,1-2.16-3.63,6.45,6.45,0,0,1,1.07-5.15,6.89,6.89,0,0,1,4.59-2.7,12.44,12.44,0,0,1,6.49.54Z"/><path class="cls-4" d="M187.2,250.91l-4.38-5.14,0,0,.39,6.75,4-1.63Zm2.82,3.18-6.68,2.71,0,3.76-5.15,2.07-.37-21.55,5.3-2.14,14.57,15.82-5.17,2.08L190,254.09Z"/><path class="cls-3" d="M187.2,250.91l-4.38-5.14,0,0,.39,6.75,4-1.63Zm2.82,3.18-6.68,2.71,0,3.76-5.15,2.07-.37-21.55,5.3-2.14,14.57,15.82-5.17,2.08L190,254.09Zm-2.82-3.18-4.38-5.14,0,0,.39,6.75,4-1.63Zm2.82,3.18-6.68,2.71,0,3.76-5.15,2.07-.37-21.55,5.3-2.14,14.57,15.82-5.17,2.08L190,254.09Z"/><polygon class="cls-1" points="198.18 230.32 206.49 243.63 211.81 240.3 214.16 244.06 204.4 250.15 193.74 233.09 198.18 230.32 198.18 230.32"/><polygon class="cls-3" points="198.18 230.32 206.49 243.63 211.81 240.3 214.16 244.06 204.4 250.15 193.74 233.09 198.18 230.32 198.18 230.32"/><polygon class="cls-1" points="218.53 219.83 213.83 223.91 216.04 226.45 220.49 222.58 223.4 225.93 218.94 229.79 221.22 232.41 225.91 228.33 228.82 231.68 220.18 239.19 206.97 224 215.62 216.49 218.53 219.83 218.53 219.83"/><polygon class="cls-3" points="218.53 219.83 213.83 223.91 216.04 226.45 220.49 222.58 223.4 225.93 218.94 229.79 221.22 232.41 225.91 228.33 228.82 231.68 220.18 239.19 206.97 224 215.62 216.49 218.53 219.83 218.53 219.83"/><path class="cls-4" d="M226.22,210.32l4,3.09.32-.4c1.49-1.91,1.57-3.37.25-4.41s-2.72-.58-4.21,1.32l-.32.4Zm9.4.77,10.39.09-4,5.13-9.15-.87,0,0,6.1,4.77-3.23,4.11L219.85,212l4.82-6.16a7.67,7.67,0,0,1,4.25-3,5.64,5.64,0,0,1,4.93,1.32,5.94,5.94,0,0,1,2.21,3.15,5,5,0,0,1-.44,3.82Z"/><path class="cls-3" d="M226.22,210.32l4,3.09.32-.4c1.49-1.91,1.57-3.37.25-4.41s-2.72-.58-4.21,1.32l-.32.4Zm9.4.77,10.39.09-4,5.13-9.15-.87,0,0,6.1,4.77-3.23,4.11L219.85,212l4.82-6.16a7.67,7.67,0,0,1,4.25-3,5.64,5.64,0,0,1,4.93,1.32,5.94,5.94,0,0,1,2.21,3.15,5,5,0,0,1-.44,3.82Zm-9.4-.77,4,3.09.32-.4c1.49-1.91,1.57-3.37.25-4.41s-2.72-.58-4.21,1.32l-.32.4Zm9.4.77,10.39.09-4,5.13-9.15-.87,0,0,6.1,4.77-3.23,4.11L219.85,212l4.82-6.16a7.67,7.67,0,0,1,4.25-3,5.64,5.64,0,0,1,4.93,1.32,5.94,5.94,0,0,1,2.21,3.15,5,5,0,0,1-.44,3.82Z"/><polygon class="cls-1" points="250.36 204.2 232.44 195.07 234.81 190.41 250.12 187.45 250.15 187.41 239.19 181.82 241.56 177.16 259.49 186.3 257.12 190.96 241.78 193.9 241.76 193.94 252.74 199.54 250.36 204.2 250.36 204.2"/><polygon class="cls-3" points="250.36 204.2 232.44 195.07 234.81 190.41 250.12 187.45 250.15 187.41 239.19 181.82 241.56 177.16 259.49 186.3 257.12 190.96 241.78 193.9 241.76 193.94 252.74 199.54 250.36 204.2 250.36 204.2"/><polygon class="cls-1" points="244.6 165.93 263.95 171.47 262.51 176.5 243.16 170.95 244.6 165.93 244.6 165.93"/><polygon class="cls-3" points="244.6 165.93 263.95 171.47 262.51 176.5 243.16 170.95 244.6 165.93 244.6 165.93"/><path class="cls-1" d="M33.49,137.63A104.17,104.17,0,1,1,137.66,241.77,104.15,104.15,0,0,1,33.49,137.63Z"/><path class="cls-3" d="M33.49,137.63A104.17,104.17,0,1,1,137.66,241.77,104.15,104.15,0,0,1,33.49,137.63Z"/><polygon class="cls-1" points="15.57 124.84 16.49 117.38 8.8 116.43 9.44 111.25 29.34 113.69 28.71 118.87 20.55 117.87 19.63 125.34 27.8 126.35 27.16 131.52 7.25 129.07 7.88 123.9 15.57 124.84 15.57 124.84"/><polygon class="cls-3" points="15.57 124.84 16.49 117.38 8.8 116.43 9.44 111.25 29.34 113.69 28.71 118.87 20.55 117.87 19.63 125.34 27.8 126.35 27.16 131.52 7.25 129.07 7.88 123.9 15.57 124.84 15.57 124.84"/><polygon class="cls-1" points="13.01 99.09 32.29 104.62 30.86 109.64 11.57 104.11 13.01 99.09 13.01 99.09"/><polygon class="cls-3" points="13.01 99.09 32.29 104.62 30.86 109.64 11.57 104.11 13.01 99.09 13.01 99.09"/><path class="cls-4" d="M20.92,89.35l4.57,2,.35-.8a6.87,6.87,0,0,0,.76-2.5,2.06,2.06,0,0,0-1.47-1.93,2.22,2.22,0,0,0-2.5.11,7.33,7.33,0,0,0-1.36,2.28l-.35.8Zm12.36,11.21L15,92.4l3.24-7.29a8,8,0,0,1,3.58-4.17,6.2,6.2,0,0,1,5.41.2q6.22,2.77,3.34,9.25l-1.21,2.7L35.4,95.8l-2.12,4.76Z"/><path class="cls-3" d="M20.92,89.35l4.57,2,.35-.8a6.87,6.87,0,0,0,.76-2.5,2.06,2.06,0,0,0-1.47-1.93,2.22,2.22,0,0,0-2.5.11,7.33,7.33,0,0,0-1.36,2.28l-.35.8Zm12.36,11.21L15,92.4l3.24-7.29a8,8,0,0,1,3.58-4.17,6.2,6.2,0,0,1,5.41.2q6.22,2.77,3.34,9.25l-1.21,2.7L35.4,95.8l-2.12,4.76ZM20.92,89.35l4.57,2,.35-.8a6.87,6.87,0,0,0,.76-2.5,2.06,2.06,0,0,0-1.47-1.93,2.22,2.22,0,0,0-2.5.11,7.33,7.33,0,0,0-1.36,2.28l-.35.8Zm12.36,11.21L15,92.4l3.24-7.29a8,8,0,0,1,3.58-4.17,6.2,6.2,0,0,1,5.41.2q6.22,2.77,3.34,9.25l-1.21,2.7L35.4,95.8l-2.12,4.76Z"/><path class="cls-4" d="M30.58,70.85l4.2,2.72.48-.73A7.27,7.27,0,0,0,36.4,70.5a2.07,2.07,0,0,0-1.15-2.14,2.22,2.22,0,0,0-2.48-.28,7.31,7.31,0,0,0-1.71,2l-.48.74ZM41,83.86,24.22,72.94l4.35-6.7a8,8,0,0,1,4.18-3.56,6.24,6.24,0,0,1,5.32,1q5.72,3.7,1.85,9.67l-1.61,2.48,5.57,3.62L41,83.86Z"/><path class="cls-3" d="M30.58,70.85l4.2,2.72.48-.73A7.27,7.27,0,0,0,36.4,70.5a2.07,2.07,0,0,0-1.15-2.14,2.22,2.22,0,0,0-2.48-.28,7.31,7.31,0,0,0-1.71,2l-.48.74ZM41,83.86,24.22,72.94l4.35-6.7a8,8,0,0,1,4.18-3.56,6.24,6.24,0,0,1,5.32,1q5.72,3.7,1.85,9.67l-1.61,2.48,5.57,3.62L41,83.86Zm-10.46-13,4.2,2.72.48-.73A7.27,7.27,0,0,0,36.4,70.5a2.07,2.07,0,0,0-1.15-2.14,2.22,2.22,0,0,0-2.48-.28,7.31,7.31,0,0,0-1.71,2l-.48.74ZM41,83.86,24.22,72.94l4.35-6.7a8,8,0,0,1,4.18-3.56,6.24,6.24,0,0,1,5.32,1q5.72,3.7,1.85,9.67l-1.61,2.48,5.57,3.62L41,83.86Z"/><path class="cls-4" d="M47.06,50.17a5.56,5.56,0,0,0-1.63,4,5,5,0,0,0,1.5,3.77,5.94,5.94,0,0,0,4.22,1.79,5.6,5.6,0,0,0,5.59-5.78,6,6,0,0,0-1.94-4.16A5,5,0,0,0,51,48.41a5.55,5.55,0,0,0-3.92,1.76Zm-3.64-3.52a11.27,11.27,0,0,1,7.43-3.55,9.56,9.56,0,0,1,7.7,2.75,10.65,10.65,0,0,1,.26,15.66A10.91,10.91,0,0,1,51,65.11a10.8,10.8,0,0,1-7.9-3.3,9.57,9.57,0,0,1-3-7.61,11.24,11.24,0,0,1,3.29-7.55Z"/><path class="cls-3" d="M47.06,50.17a5.56,5.56,0,0,0-1.63,4,5,5,0,0,0,1.5,3.77,5.94,5.94,0,0,0,4.22,1.79,5.6,5.6,0,0,0,5.59-5.78,6,6,0,0,0-1.94-4.16A5,5,0,0,0,51,48.41a5.55,5.55,0,0,0-3.92,1.76Zm-3.64-3.52a11.27,11.27,0,0,1,7.43-3.55,9.56,9.56,0,0,1,7.7,2.75,10.65,10.65,0,0,1,.26,15.66A10.91,10.91,0,0,1,51,65.11a10.8,10.8,0,0,1-7.9-3.3,9.57,9.57,0,0,1-3-7.61,11.24,11.24,0,0,1,3.29-7.55Z"/><path class="cls-1" d="M69.48,26.89,73.06,32a5.34,5.34,0,0,0-5,.81,5,5,0,0,0-2.24,3.52,5.58,5.58,0,0,0,1.06,4.1,5.42,5.42,0,0,0,3.48,2.37,5.33,5.33,0,0,0,4.09-1,5.63,5.63,0,0,0,2.46-4.33l3.59,5.12A17.2,17.2,0,0,1,77.24,46a10.86,10.86,0,0,1-7.84,1.91,9.82,9.82,0,0,1-7-4.38,10.14,10.14,0,0,1-1.8-7.71,10.26,10.26,0,0,1,4.39-7,12.5,12.5,0,0,1,4.49-1.91Z"/><path class="cls-3" d="M69.48,26.89,73.06,32a5.34,5.34,0,0,0-5,.81,5,5,0,0,0-2.24,3.52,5.58,5.58,0,0,0,1.06,4.1,5.42,5.42,0,0,0,3.48,2.37,5.33,5.33,0,0,0,4.09-1,5.63,5.63,0,0,0,2.46-4.33l3.59,5.12A17.2,17.2,0,0,1,77.24,46a10.86,10.86,0,0,1-7.84,1.91,9.82,9.82,0,0,1-7-4.38,10.14,10.14,0,0,1-1.8-7.71,10.26,10.26,0,0,1,4.39-7,12.5,12.5,0,0,1,4.49-1.91Z"/><path class="cls-4" d="M82.59,23.92l2,4.57.47-.21c2.2-1,3-2.24,2.29-3.76s-2.13-1.79-4.33-.81l-.46.21ZM90.5,29l9.1,4.94-5.93,2.64L86,31.52l-.05,0,3.14,7.05-4.77,2.12L76.2,22.39l7.12-3.17a7.74,7.74,0,0,1,5.15-.67A5.69,5.69,0,0,1,92.2,22a6.09,6.09,0,0,1,.48,3.8A5.11,5.11,0,0,1,90.5,29Z"/><path class="cls-3" d="M82.59,23.92l2,4.57.47-.21c2.2-1,3-2.24,2.29-3.76s-2.13-1.79-4.33-.81l-.46.21ZM90.5,29l9.1,4.94-5.93,2.64L86,31.52l-.05,0,3.14,7.05-4.77,2.12L76.2,22.39l7.12-3.17a7.74,7.74,0,0,1,5.15-.67A5.69,5.69,0,0,1,92.2,22a6.09,6.09,0,0,1,.48,3.8A5.11,5.11,0,0,1,90.5,29Zm-7.91-5.07,2,4.57.47-.21c2.2-1,3-2.24,2.29-3.76s-2.13-1.79-4.33-.81l-.46.21ZM90.5,29l9.1,4.94-5.93,2.64L86,31.52l-.05,0,3.14,7.05-4.77,2.12L76.2,22.39l7.12-3.17a7.74,7.74,0,0,1,5.15-.67A5.69,5.69,0,0,1,92.2,22a6.09,6.09,0,0,1,.48,3.8A5.11,5.11,0,0,1,90.5,29Z"/><path class="cls-4" d="M112.44,23.06l-3.51-5.75h-.05L108.22,24l4.22-1Zm2.27,3.56-7,1.62L107.15,32l-5.38,1.24,3-21.28,5.54-1.27,11.88,17.84-5.42,1.25-2.06-3.11Z"/><path class="cls-3" d="M112.44,23.06l-3.51-5.75h-.05L108.22,24l4.22-1Zm2.27,3.56-7,1.62L107.15,32l-5.38,1.24,3-21.28,5.54-1.27,11.88,17.84-5.42,1.25-2.06-3.11Zm-2.27-3.56-3.51-5.75h-.05L108.22,24l4.22-1Zm2.27,3.56-7,1.62L107.15,32l-5.38,1.24,3-21.28,5.54-1.27,11.88,17.84-5.42,1.25-2.06-3.11Z"/><polygon class="cls-1" points="129.84 12.13 130.94 27.73 125.73 28.09 124.65 12.49 120.35 12.79 120.04 8.39 133.84 7.42 134.15 11.83 129.84 12.13 129.84 12.13"/><polygon class="cls-3" points="129.84 12.13 130.94 27.73 125.73 28.09 124.65 12.49 120.35 12.79 120.04 8.39 133.84 7.42 134.15 11.83 129.84 12.13 129.84 12.13"/><polygon class="cls-1" points="143.17 7.5 142.82 27.56 137.6 27.46 137.96 7.41 143.17 7.5 143.17 7.5"/><polygon class="cls-3" points="143.17 7.5 142.82 27.56 137.6 27.46 137.96 7.41 143.17 7.5 143.17 7.5"/><path class="cls-1" d="M163.4,10.1l-.76,6.2a5.35,5.35,0,0,0-4.28-2.75,5.06,5.06,0,0,0-4,1.11,5.62,5.62,0,0,0-2,3.75,5.44,5.44,0,0,0,1,4.09,5.29,5.29,0,0,0,3.73,2,5.64,5.64,0,0,0,4.72-1.56l-.77,6.21a17.42,17.42,0,0,1-4.68.35,10.87,10.87,0,0,1-7.11-3.81A9.88,9.88,0,0,1,147,17.73,10.59,10.59,0,0,1,158.8,8.52a12.25,12.25,0,0,1,4.6,1.58Z"/><path class="cls-3" d="M163.4,10.1l-.76,6.2a5.35,5.35,0,0,0-4.28-2.75,5.06,5.06,0,0,0-4,1.11,5.62,5.62,0,0,0-2,3.75,5.44,5.44,0,0,0,1,4.09,5.29,5.29,0,0,0,3.73,2,5.64,5.64,0,0,0,4.72-1.56l-.77,6.21a17.42,17.42,0,0,1-4.68.35,10.87,10.87,0,0,1-7.11-3.81A9.88,9.88,0,0,1,147,17.73,10.59,10.59,0,0,1,158.8,8.52a12.25,12.25,0,0,1,4.6,1.58Z"/><path class="cls-4" d="M178,27.26l.06-6.72,0,0-4.12,5.34L178,27.26Zm0,4.24-6.8-2.34L168.75,32l-5.23-1.8,13.82-16.45,5.38,1.85L183.34,37l-5.26-1.82L178,31.5Z"/><path class="cls-3" d="M178,27.26l.06-6.72,0,0-4.12,5.34L178,27.26Zm0,4.24-6.8-2.34L168.75,32l-5.23-1.8,13.82-16.45,5.38,1.85L183.34,37l-5.26-1.82L178,31.5Zm0-4.24.06-6.72,0,0-4.12,5.34L178,27.26Zm0,4.24-6.8-2.34L168.75,32l-5.23-1.8,13.82-16.45,5.38,1.85L183.34,37l-5.26-1.82L178,31.5Z"/><path class="cls-1" d="M217.15,35.08l-3.59,5.12a5.35,5.35,0,0,0-2.48-4.43,5,5,0,0,0-4.08-.9,5.5,5.5,0,0,0-3.49,2.39,5.43,5.43,0,0,0-1,4.08,5.34,5.34,0,0,0,2.36,3.5,5.63,5.63,0,0,0,4.9.83l-3.59,5.12a17.31,17.31,0,0,1-4.3-1.87,10.92,10.92,0,0,1-4.49-6.72,9.86,9.86,0,0,1,1.73-8.08,10.12,10.12,0,0,1,6.63-4.32,10.3,10.3,0,0,1,8.12,1.72,12.39,12.39,0,0,1,3.32,3.56Z"/><path class="cls-3" d="M217.15,35.08l-3.59,5.12a5.35,5.35,0,0,0-2.48-4.43,5,5,0,0,0-4.08-.9,5.5,5.5,0,0,0-3.49,2.39,5.43,5.43,0,0,0-1,4.08,5.34,5.34,0,0,0,2.36,3.5,5.63,5.63,0,0,0,4.9.83l-3.59,5.12a17.31,17.31,0,0,1-4.3-1.87,10.92,10.92,0,0,1-4.49-6.72,9.86,9.86,0,0,1,1.73-8.08,10.12,10.12,0,0,1,6.63-4.32,10.3,10.3,0,0,1,8.12,1.72,12.39,12.39,0,0,1,3.32,3.56Z"/><polygon class="cls-1" points="225.79 42 212.63 57.14 208.69 53.72 221.85 38.58 225.79 42 225.79 42"/><polygon class="cls-3" points="225.79 42 212.63 57.14 208.69 53.72 221.85 38.58 225.79 42 225.79 42"/><polygon class="cls-1" points="233.22 49.45 227.2 61.1 239.59 56.78 243.31 61.05 222.55 67.74 219.89 64.69 229.5 45.17 233.22 49.45 233.22 49.45"/><polygon class="cls-3" points="233.22 49.45 227.2 61.1 239.59 56.78 243.31 61.05 222.55 67.74 219.89 64.69 229.5 45.17 233.22 49.45 233.22 49.45"/><polygon class="cls-1" points="248.51 69.74 231.69 80.67 228.84 76.29 245.66 65.37 248.51 69.74 248.51 69.74"/><polygon class="cls-3" points="248.51 69.74 231.69 80.67 228.84 76.29 245.66 65.37 248.51 69.74 248.51 69.74"/><polygon class="cls-1" points="251.22 84.09 237.28 91.19 234.91 86.54 248.85 79.44 246.89 75.6 250.83 73.59 257.11 85.92 253.18 87.93 251.22 84.09 251.22 84.09"/><polygon class="cls-3" points="251.22 84.09 237.28 91.19 234.91 86.54 248.85 79.44 246.89 75.6 250.83 73.59 257.11 85.92 253.18 87.93 251.22 84.09 251.22 84.09"/><path class="cls-4" d="M249.85,105.28l5.56-3.81,0,0-6.73-.31,1.19,4.17Zm-3.44,2.46-2-6.91-3.73-.36-1.53-5.33L260.58,97l1.57,5.47L245,115.29,243.41,110l3-2.21Z"/><path class="cls-3" d="M249.85,105.28l5.56-3.81,0,0-6.73-.31,1.19,4.17Zm-3.44,2.46-2-6.91-3.73-.36-1.53-5.33L260.58,97l1.57,5.47L245,115.29,243.41,110l3-2.21Zm3.44-2.46,5.56-3.81,0,0-6.73-.31,1.19,4.17Zm-3.44,2.46-2-6.91-3.73-.36-1.53-5.33L260.58,97l1.57,5.47L245,115.29,243.41,110l3-2.21Z"/><path class="cls-1" d="M266.31,129.34,262,127.78a5.32,5.32,0,0,0,.9-3.6,2.59,2.59,0,0,0-.61-1.4,1.4,1.4,0,0,0-1.33-.61c-.8.1-1.35.94-1.62,2.53l-.23,1.37a8.83,8.83,0,0,1-1.4,3.71,4.83,4.83,0,0,1-3.44,1.87q-3.62.43-5.61-1.4a8.55,8.55,0,0,1-2.57-5.42,12,12,0,0,1,1.41-7.28l4.45,1.7a7.18,7.18,0,0,0-1.5,4.85,3.13,3.13,0,0,0,.71,1.68,1.77,1.77,0,0,0,1.61.59c.63-.08,1.1-.54,1.41-1.36a9,9,0,0,0,.46-2.07,11,11,0,0,1,1.24-4.11,4.92,4.92,0,0,1,3.73-2,6.38,6.38,0,0,1,5.07,1.33,6.94,6.94,0,0,1,2.46,4.71,12.37,12.37,0,0,1-.87,6.43Z"/><path class="cls-3" d="M266.31,129.34,262,127.78a5.32,5.32,0,0,0,.9-3.6,2.59,2.59,0,0,0-.61-1.4,1.4,1.4,0,0,0-1.33-.61c-.8.1-1.35.94-1.62,2.53l-.23,1.37a8.83,8.83,0,0,1-1.4,3.71,4.83,4.83,0,0,1-3.44,1.87q-3.62.43-5.61-1.4a8.55,8.55,0,0,1-2.57-5.42,12,12,0,0,1,1.41-7.28l4.45,1.7a7.18,7.18,0,0,0-1.5,4.85,3.13,3.13,0,0,0,.71,1.68,1.77,1.77,0,0,0,1.61.59c.63-.08,1.1-.54,1.41-1.36a9,9,0,0,0,.46-2.07,11,11,0,0,1,1.24-4.11,4.92,4.92,0,0,1,3.73-2,6.38,6.38,0,0,1,5.07,1.33,6.94,6.94,0,0,1,2.46,4.71,12.37,12.37,0,0,1-.87,6.43Z"/><path class="cls-1" d="M98.33,85.06c-1.42-.58-2.22-1.16-2.22-1.8,0-.9,1.56-1.76,4.32-2.52l-.15-.87a2.26,2.26,0,0,1-.53.07,2.37,2.37,0,0,1-.29-4.73l-.2-1.11c-.4.13-.78.26-1.11.4-1.42-.57-2.22-1.17-2.22-1.8s.61-1.11,1.74-1.63a5,5,0,0,1-1-.28A3.16,3.16,0,0,1,95,69.49c-4.12-6.86-9.23-11.81-14.34-14.1q2.13-1.53,5.34,0a3.67,3.67,0,0,0,0-3,6.14,6.14,0,0,1,4.73,4l1.07-2.29A14.68,14.68,0,0,0,93,57.46a2.33,2.33,0,0,1,1.77-1.12,2.4,2.4,0,0,1,2.55,2.25,2.49,2.49,0,0,1-1.58,2.56,14.4,14.4,0,0,0,2.83,2L94.19,64l3.64,4.51c3,.69,3.58-.25,4.68-2.65,5.93,1.54,8.06.41,9.76-3.38a43.29,43.29,0,0,0,.1-6.21,18.36,18.36,0,0,1,2.57,0,43.28,43.28,0,0,0,.37,6.18,5.39,5.39,0,0,0,9.31-.58l1.17-2.36L127,61.87c1.86,3.76,8,3.93,10.32.57-.08,0,.08-7.44,0-7.44h3s-.16,7.27,0,7.46c2.34,3.38,8.73,3.18,10.58-.59l1.22-2.46,1.12,2.49c1.62,3.55,6.37,4.08,9.18.62.58-1,.63-6.1.8-6.38l2.37.46c-.08.08,0,5.84,0,5.89,1.66,3.87,4.06,4.81,10,3.43.91,1.37,2.06,3.37,4,2.62a7.11,7.11,0,0,0,.78-.73l3-3.81-4.35-.84a13.9,13.9,0,0,0,2.84-2,2.48,2.48,0,0,1-1.58-2.56,2.4,2.4,0,0,1,2.55-2.25,2.31,2.31,0,0,1,1.76,1.12,14.23,14.23,0,0,0,1.15-3.37l1.07,2.29a6.14,6.14,0,0,1,4.72-4,3.76,3.76,0,0,0,0,3c2.14-1,3.93-1,5.34,0-5.1,2.29-10.24,7.16-14.36,14A7,7,0,0,1,180.51,71a3.88,3.88,0,0,1-1.16.43c.72.42,1.1.85,1.1,1.3,0,.63-.77,1.24-2.18,1.81-.27-.11-.56-.22-.88-.32l-.21,1.24a2.37,2.37,0,0,1-.29,4.72,3,3,0,0,1-.53-.05l-.11.62c2.79.77,4.37,1.63,4.37,2.54,0,.64-.75,1.24-2.17,1.8-5.6-2.25-21.44-3.89-40.08-3.89s-34.41,1.63-40,3.89Z"/><path class="cls-2" d="M98.33,85.06c-1.42-.58-2.22-1.16-2.22-1.8,0-.9,1.56-1.76,4.32-2.52l-.15-.87a2.26,2.26,0,0,1-.53.07,2.37,2.37,0,0,1-.29-4.73l-.2-1.11c-.4.13-.78.26-1.11.4-1.42-.57-2.22-1.17-2.22-1.8s.61-1.11,1.74-1.63a5,5,0,0,1-1-.28A3.16,3.16,0,0,1,95,69.49c-4.12-6.86-9.23-11.81-14.34-14.1q2.13-1.53,5.34,0a3.67,3.67,0,0,0,0-3,6.14,6.14,0,0,1,4.73,4l1.07-2.29A14.68,14.68,0,0,0,93,57.46a2.33,2.33,0,0,1,1.77-1.12,2.4,2.4,0,0,1,2.55,2.25,2.49,2.49,0,0,1-1.58,2.56,14.4,14.4,0,0,0,2.83,2L94.19,64l3.64,4.51c3,.69,3.58-.25,4.68-2.65,5.93,1.54,8.06.41,9.76-3.38a43.29,43.29,0,0,0,.1-6.21,18.36,18.36,0,0,1,2.57,0,43.28,43.28,0,0,0,.37,6.18,5.39,5.39,0,0,0,9.31-.58l1.17-2.36L127,61.87c1.86,3.76,8,3.93,10.32.57-.08,0,.08-7.44,0-7.44h3s-.16,7.27,0,7.46c2.34,3.38,8.73,3.18,10.58-.59l1.22-2.46,1.12,2.49c1.62,3.55,6.37,4.08,9.18.62.58-1,.63-6.1.8-6.38l2.37.46c-.08.08,0,5.84,0,5.89,1.66,3.87,4.06,4.81,10,3.43.91,1.37,2.06,3.37,4,2.62a7.11,7.11,0,0,0,.78-.73l3-3.81-4.35-.84a13.9,13.9,0,0,0,2.84-2,2.48,2.48,0,0,1-1.58-2.56,2.4,2.4,0,0,1,2.55-2.25,2.31,2.31,0,0,1,1.76,1.12,14.23,14.23,0,0,0,1.15-3.37l1.07,2.29a6.14,6.14,0,0,1,4.72-4,3.76,3.76,0,0,0,0,3c2.14-1,3.93-1,5.34,0-5.1,2.29-10.24,7.16-14.36,14A7,7,0,0,1,180.51,71a3.88,3.88,0,0,1-1.16.43c.72.42,1.1.85,1.1,1.3,0,.63-.77,1.24-2.18,1.81-.27-.11-.56-.22-.88-.32l-.21,1.24a2.37,2.37,0,0,1-.29,4.72,3,3,0,0,1-.53-.05l-.11.62c2.79.77,4.37,1.63,4.37,2.54,0,.64-.75,1.24-2.17,1.8-5.6-2.25-21.44-3.89-40.08-3.89s-34.41,1.63-40,3.89Z"/><path class="cls-1" d="M119.37,52.46a2.15,2.15,0,0,1,1.74-1.28,2.17,2.17,0,0,1,2.31,2,2.21,2.21,0,0,1-1.94,2.43,2.13,2.13,0,0,1-1.87-.87,18.53,18.53,0,0,0,2.25,5.87,13.84,13.84,0,0,1-8.29-3.76,13.84,13.84,0,0,1-7.45,5.21,19,19,0,0,0,1.26-6.34,2.12,2.12,0,0,1-4.09-.69,2.21,2.21,0,0,1,1.93-2.43,2.11,2.11,0,0,1,2,1.07A13,13,0,0,0,105,48l4.33,2.94-2.7-5.31a8.89,8.89,0,0,0,5.18,2.9,2.25,2.25,0,0,1-1.13-1.79,2.23,2.23,0,0,1,1.94-2.44,2.17,2.17,0,0,1,2.31,2.05,2.28,2.28,0,0,1-.88,2,8.52,8.52,0,0,0,4.68-3.86l-1.78,5.73,3.79-3.69a13.17,13.17,0,0,0-1.32,5.92Z"/><path class="cls-2" d="M119.37,52.46a2.15,2.15,0,0,1,1.74-1.28,2.17,2.17,0,0,1,2.31,2,2.21,2.21,0,0,1-1.94,2.43,2.13,2.13,0,0,1-1.87-.87,18.53,18.53,0,0,0,2.25,5.87,13.84,13.84,0,0,1-8.29-3.76,13.84,13.84,0,0,1-7.45,5.21,19,19,0,0,0,1.26-6.34,2.12,2.12,0,0,1-4.09-.69,2.21,2.21,0,0,1,1.93-2.43,2.11,2.11,0,0,1,2,1.07A13,13,0,0,0,105,48l4.33,2.94-2.7-5.31a8.89,8.89,0,0,0,5.18,2.9,2.25,2.25,0,0,1-1.13-1.79,2.23,2.23,0,0,1,1.94-2.44,2.17,2.17,0,0,1,2.31,2.05,2.28,2.28,0,0,1-.88,2,8.52,8.52,0,0,0,4.68-3.86l-1.78,5.73,3.79-3.69a13.17,13.17,0,0,0-1.32,5.92Z"/><path class="cls-1" d="M145.26,51.59a2.25,2.25,0,1,1,.05,2.36,18.26,18.26,0,0,0,1.85,6,15,15,0,0,1-8.36-4.51A14.74,14.74,0,0,1,130.53,60a18.52,18.52,0,0,0,1.87-6.2,2.28,2.28,0,0,1-2,1.18,2.25,2.25,0,1,1,2-3.24,12.76,12.76,0,0,0-1.91-5.91l4.29,3.32-2.37-5.54A9.59,9.59,0,0,0,137.64,47,2.24,2.24,0,1,1,140,47a8.92,8.92,0,0,0,5.25-3.41l-2.37,5.54,4.29-3.32a12.73,12.73,0,0,0-1.9,5.76Z"/><path class="cls-2" d="M145.26,51.59a2.25,2.25,0,1,1,.05,2.36,18.26,18.26,0,0,0,1.85,6,15,15,0,0,1-8.36-4.51A14.74,14.74,0,0,1,130.53,60a18.52,18.52,0,0,0,1.87-6.2,2.28,2.28,0,0,1-2,1.18,2.25,2.25,0,1,1,2-3.24,12.76,12.76,0,0,0-1.91-5.91l4.29,3.32-2.37-5.54A9.59,9.59,0,0,0,137.64,47,2.24,2.24,0,1,1,140,47a8.92,8.92,0,0,0,5.25-3.41l-2.37,5.54,4.29-3.32a12.73,12.73,0,0,0-1.9,5.76Z"/><path class="cls-1" d="M170.47,53.57a2.1,2.1,0,0,1,1.92-.93,2.21,2.21,0,0,1,1.94,2.43,2.11,2.11,0,0,1-4,.85,19.42,19.42,0,0,0,1.25,6.19A14.11,14.11,0,0,1,164,56.89a13.6,13.6,0,0,1-8.21,3.77,18.52,18.52,0,0,0,2.28-6,2.08,2.08,0,0,1-2,1,2.21,2.21,0,0,1-1.93-2.44,2.15,2.15,0,0,1,2.31-2,2.18,2.18,0,0,1,1.81,1.42A13.35,13.35,0,0,0,157,46.54l3.79,3.69L159,44.5a9.15,9.15,0,0,0,4.63,3.81,2.25,2.25,0,0,1-.82-2,2.17,2.17,0,0,1,2.31-2.05,2.23,2.23,0,0,1,1.94,2.44,2.26,2.26,0,0,1-1.2,1.82,8.28,8.28,0,0,0,5.24-2.93l-2.7,5.31L172.74,48a13.05,13.05,0,0,0-2.27,5.58Z"/><path class="cls-2" d="M170.47,53.57a2.1,2.1,0,0,1,1.92-.93,2.21,2.21,0,0,1,1.94,2.43,2.11,2.11,0,0,1-4,.85,19.42,19.42,0,0,0,1.25,6.19A14.11,14.11,0,0,1,164,56.89a13.6,13.6,0,0,1-8.21,3.77,18.52,18.52,0,0,0,2.28-6,2.08,2.08,0,0,1-2,1,2.21,2.21,0,0,1-1.93-2.44,2.15,2.15,0,0,1,2.31-2,2.18,2.18,0,0,1,1.81,1.42A13.35,13.35,0,0,0,157,46.54l3.79,3.69L159,44.5a9.15,9.15,0,0,0,4.63,3.81,2.25,2.25,0,0,1-.82-2,2.17,2.17,0,0,1,2.31-2.05,2.23,2.23,0,0,1,1.94,2.44,2.26,2.26,0,0,1-1.2,1.82,8.28,8.28,0,0,0,5.24-2.93l-2.7,5.31L172.74,48a13.05,13.05,0,0,0-2.27,5.58Z"/><path class="cls-1" d="M87.11,62.53a2.36,2.36,0,0,1,.82-2.09A41.93,41.93,0,0,1,91.19,64a2.34,2.34,0,0,1-4.08-1.48Z"/><path class="cls-3" d="M87.11,62.53a2.36,2.36,0,0,1,.82-2.09A41.93,41.93,0,0,1,91.19,64a2.34,2.34,0,0,1-4.08-1.48Z"/><path class="cls-1" d="M190.51,62.53a2.36,2.36,0,0,0-.82-2.09A41.93,41.93,0,0,0,186.43,64a2.34,2.34,0,0,0,4.08-1.48Z"/><path class="cls-3" d="M190.51,62.53a2.36,2.36,0,0,0-.82-2.09A41.93,41.93,0,0,0,186.43,64a2.34,2.34,0,0,0,4.08-1.48Z"/><path class="cls-1" d="M110.9,53.31A2.44,2.44,0,0,1,113,50.63a2.37,2.37,0,0,1,2.55,2.24,2.46,2.46,0,0,1-2.14,2.69,2.39,2.39,0,0,1-2.55-2.25Z"/><path class="cls-3" d="M110.9,53.31A2.44,2.44,0,0,1,113,50.63a2.37,2.37,0,0,1,2.55,2.24,2.46,2.46,0,0,1-2.14,2.69,2.39,2.39,0,0,1-2.55-2.25Z"/><path class="cls-1" d="M136.31,51.67a2.48,2.48,0,1,1,2.48,2.47,2.47,2.47,0,0,1-2.48-2.47Z"/><path class="cls-3" d="M136.31,51.67a2.48,2.48,0,1,1,2.48,2.47,2.47,2.47,0,0,1-2.48-2.47Z"/><path class="cls-1" d="M162,52.86a2.38,2.38,0,0,1,2.54-2.24,2.43,2.43,0,0,1,2.14,2.68,2.38,2.38,0,0,1-2.54,2.25A2.44,2.44,0,0,1,162,52.86Z"/><path class="cls-3" d="M162,52.86a2.38,2.38,0,0,1,2.54-2.24,2.43,2.43,0,0,1,2.14,2.68,2.38,2.38,0,0,1-2.54,2.25A2.44,2.44,0,0,1,162,52.86Z"/><path class="cls-1" d="M175.57,70.06a8.09,8.09,0,0,1-.87-1.27,18.72,18.72,0,0,1-3.9.37c1.67.27,3.51.58,4.77.9Z"/><path class="cls-3" d="M175.57,70.06a8.09,8.09,0,0,1-.87-1.27,18.72,18.72,0,0,1-3.9.37c1.67.27,3.51.58,4.77.9Z"/><path class="cls-1" d="M168.65,68.75a7.79,7.79,0,0,1-5-3.8c-3.42,3.29-8.77,3.42-11.69-.16a8.47,8.47,0,0,1-4.1,2.35,199,199,0,0,1,20.78,1.61Z"/><path class="cls-3" d="M168.65,68.75a7.79,7.79,0,0,1-5-3.8c-3.42,3.29-8.77,3.42-11.69-.16a8.47,8.47,0,0,1-4.1,2.35,199,199,0,0,1,20.78,1.61Z"/><path class="cls-1" d="M142.51,67a8.24,8.24,0,0,1-3.72-2.3A8.27,8.27,0,0,1,135.17,67l3,0q2.19,0,4.32,0Z"/><path class="cls-3" d="M142.51,67a8.24,8.24,0,0,1-3.72-2.3A8.27,8.27,0,0,1,135.17,67l3,0q2.19,0,4.32,0Z"/><path class="cls-1" d="M129.74,67.1a8.17,8.17,0,0,1-3.93-2.35,8,8,0,0,1-11.75.24,8,8,0,0,1-3.76,3.42c5.42-.65,12.09-1.11,19.44-1.31Z"/><path class="cls-3" d="M129.74,67.1a8.17,8.17,0,0,1-3.93-2.35,8,8,0,0,1-11.75.24,8,8,0,0,1-3.76,3.42c5.42-.65,12.09-1.11,19.44-1.31Z"/><path class="cls-1" d="M107.8,68.92a27.92,27.92,0,0,1-3.91-.61c-.22.23-1.36,1.43-1.35,1.4.71-.14,4.47-.66,5.26-.79Z"/><path class="cls-3" d="M107.8,68.92a27.92,27.92,0,0,1-3.91-.61c-.22.23-1.36,1.43-1.35,1.4.71-.14,4.47-.66,5.26-.79Z"/><path class="cls-1" d="M175.39,73.68c-3-.89-6.71-1.43-12.69-2A6.18,6.18,0,0,1,166,74a2.43,2.43,0,0,1,1.53-.55,2.35,2.35,0,0,1,2.34,2c0,.11,5.61-1.52,5.58-1.54a1,1,0,0,1,0-.25Z"/><path class="cls-3" d="M175.39,73.68c-3-.89-6.71-1.43-12.69-2A6.18,6.18,0,0,1,166,74a2.43,2.43,0,0,1,1.53-.55,2.35,2.35,0,0,1,2.34,2c0,.11,5.61-1.52,5.58-1.54a1,1,0,0,1,0-.25Z"/><path class="cls-1" d="M156.34,71.16c-5.12-.33-10.82-.52-16.84-.55l8.54,2.8a2.37,2.37,0,0,1,4.31-.06,5.85,5.85,0,0,1,4-2.19Z"/><path class="cls-3" d="M156.34,71.16c-5.12-.33-10.82-.52-16.84-.55l8.54,2.8a2.37,2.37,0,0,1,4.31-.06,5.85,5.85,0,0,1,4-2.19Z"/><path class="cls-1" d="M138.05,70.61c-5.86,0-11.44.17-16.5.47a5.24,5.24,0,0,1,3.58,2.22,2.37,2.37,0,0,1,4.4.07s8.52-2.76,8.52-2.76Z"/><path class="cls-3" d="M138.05,70.61c-5.86,0-11.44.17-16.5.47a5.24,5.24,0,0,1,3.58,2.22,2.37,2.37,0,0,1,4.4.07s8.52-2.76,8.52-2.76Z"/><path class="cls-1" d="M114.34,71.61a79.73,79.73,0,0,0-14.06,2.25s6.5,1.49,6.53,1.36a2.37,2.37,0,0,1,4.36-.84,5,5,0,0,1,3.17-2.77Z"/><path class="cls-3" d="M114.34,71.61a79.73,79.73,0,0,0-14.06,2.25s6.5,1.49,6.53,1.36a2.37,2.37,0,0,1,4.36-.84,5,5,0,0,1,3.17-2.77Z"/><path class="cls-1" d="M162.12,78.53a105.49,105.49,0,0,1,12.3,1.75s-4.68-3.26-4.78-3.16a4.38,4.38,0,0,1-2.14,1.07A2.39,2.39,0,0,1,165.45,77a6.58,6.58,0,0,1-3.33,1.51Z"/><path class="cls-3" d="M162.12,78.53a105.49,105.49,0,0,1,12.3,1.75s-4.68-3.26-4.78-3.16a4.38,4.38,0,0,1-2.14,1.07A2.39,2.39,0,0,1,165.45,77a6.58,6.58,0,0,1-3.33,1.51Z"/><path class="cls-1" d="M139.8,77.55c5.62,0,10.95.2,15.8.5a5.87,5.87,0,0,1-3.34-2.5,2.37,2.37,0,0,1-4.37-.65s-8.09,2.65-8.09,2.65Z"/><path class="cls-3" d="M139.8,77.55c5.62,0,10.95.2,15.8.5a5.87,5.87,0,0,1-3.34-2.5,2.37,2.37,0,0,1-4.37-.65s-8.09,2.65-8.09,2.65Z"/><path class="cls-1" d="M121.21,78c5.06-.3,10.64-.48,16.52-.49,0,0-8.15-2.65-8.16-2.63a2.37,2.37,0,0,1-4.4.32c-.51,1.18-2,2.21-4,2.8Z"/><path class="cls-3" d="M121.21,78c5.06-.3,10.64-.48,16.52-.49,0,0-8.15-2.65-8.16-2.63a2.37,2.37,0,0,1-4.4.32c-.51,1.18-2,2.21-4,2.8Z"/><path class="cls-1" d="M101.74,80.41a106.05,106.05,0,0,1,14.07-2c-2.06-.3-3.69-1.11-4.38-2.21a2.37,2.37,0,0,1-4.27.69c-.06-.09-5.42,3.5-5.42,3.5Z"/><path class="cls-3" d="M101.74,80.41a106.05,106.05,0,0,1,14.07-2c-2.06-.3-3.69-1.11-4.38-2.21a2.37,2.37,0,0,1-4.27.69c-.06-.09-5.42,3.5-5.42,3.5Z"/><path class="cls-5" d="M188.23,86.75V215.14c0,3.77-2.18,5.85-5.65,5.85H153.47c-6.26,0-12.29,4.89-14.28,11.13-2-6.24-7.88-11.13-14.15-11.13H95.93c-3.47,0-5.64-2.08-5.64-5.85V86.75Z"/><path class="cls-3" d="M188.23,86.75V215.14c0,3.77-2.18,5.85-5.65,5.85H153.47c-6.26,0-12.29,4.89-14.28,11.13-2-6.24-7.88-11.13-14.15-11.13H95.93c-3.47,0-5.64-2.08-5.64-5.85V86.75Z"/><polygon class="cls-6" points="90.28 86.75 188.23 86.75 188.23 150.37 90.28 150.37 90.28 86.75 90.28 86.75"/><polygon class="cls-6" points="90.28 86.75 188.23 86.75 188.23 150.37 90.28 150.37 90.28 86.75 90.28 86.75"/><path class="cls-7" d="M132.85,116.53s2.44-.15,3.08-1.29a6,6,0,0,0,.49-2.91l9.7,1.13,5.19,8.09-16.19,3.08-2.27-8.1Z"/><path class="cls-3" d="M132.85,116.53s2.44-.15,3.08-1.29a6,6,0,0,0,.49-2.91l9.7,1.13,5.19,8.09-16.19,3.08-2.27-8.1Z"/><path class="cls-8" d="M106.94,140a51.66,51.66,0,0,1-1.29-6.31c-.14-2.34.66-11.33.66-11.33a12.51,12.51,0,0,1,1.13,5.5c0,2.32-1.27,7.93-.5,12.31V140Z"/><path class="cls-3" d="M106.94,140a51.66,51.66,0,0,1-1.29-6.31c-.14-2.34.66-11.33.66-11.33a12.51,12.51,0,0,1,1.13,5.5c0,2.32-1.27,7.93-.5,12.31V140Z"/><path class="cls-8" d="M106.42,122.53,103,117.18a19.9,19.9,0,0,0-.33-3.56c-.32-1.45-2.87-3.08-3.16-4.2-.08-.33-1.54.08-.65,1.78.58,1.09,1.23,2.43,1.23,2.43l-1.18-2.2-1.18-1.69-3.7,4.73-1.11.71c-.11.5.51,1.31,1.49,2.17q2.4,2.58,3.72,2.74s3.56,6.31,4.7,8.42a30.86,30.86,0,0,0,4.54,5.34l1.45-4.53-2.43-6.79Z"/><path class="cls-7" d="M106.42,122.53,103,117.18a19.9,19.9,0,0,0-.33-3.56c-.32-1.45-2.87-3.08-3.16-4.2-.08-.33-1.54.08-.65,1.78.58,1.09,1.23,2.43,1.23,2.43l-1.18-2.2-1.18-1.69-3.7,4.73-1.11.71c-.11.5.51,1.31,1.49,2.17q2.4,2.58,3.72,2.74s3.56,6.31,4.7,8.42a30.86,30.86,0,0,0,4.54,5.34l1.45-4.53-2.43-6.79Z"/><path class="cls-1" d="M93.88,113c.2-.39.74-.89,1.59-.15.58.5,1.37.68,1,1.28a1.58,1.58,0,0,1-1.77.24c-.71-.31-1.1-.72-.77-1.37Z"/><path class="cls-3" d="M93.88,113c.2-.39.74-.89,1.59-.15.58.5,1.37.68,1,1.28a1.58,1.58,0,0,1-1.77.24c-.71-.31-1.1-.72-.77-1.37Z"/><path class="cls-1" d="M92.91,115.42A.88.88,0,0,1,94,114.33c.64.19,1,.28,1.09.7.06.61-.27.87-1,1a1,1,0,0,1-1.2-.57Z"/><path class="cls-3" d="M92.91,115.42A.88.88,0,0,1,94,114.33c.64.19,1,.28,1.09.7.06.61-.27.87-1,1a1,1,0,0,1-1.2-.57Z"/><path class="cls-1" d="M117.63,93.85c.57.76-.44,2.13-.93,3.13-.15,1.06-.16,1.53-2.73,2.09a2.45,2.45,0,0,0,2.4.27c-.16,1.42-2.18,1.62-3.71,1.82a2.38,2.38,0,0,0,2.33.58c-.43,1.15-5.71,5.66-10.76,5.3-.17,1,.68,1.14,1.4,1.12-.87.28-2.84.65-3.1-.06-.08.65-.7.72.17,1.3-.93,0-1.71.07-2.11-.65l-5.44,4.31L92,114.49,99.55,108c2.38-2.36,15-13.67,18.08-14.16Z"/><path class="cls-3" d="M117.63,93.85c.57.76-.44,2.13-.93,3.13-.15,1.06-.16,1.53-2.73,2.09a2.45,2.45,0,0,0,2.4.27c-.16,1.42-2.18,1.62-3.71,1.82a2.38,2.38,0,0,0,2.33.58c-.43,1.15-5.71,5.66-10.76,5.3-.17,1,.68,1.14,1.4,1.12-.87.28-2.84.65-3.1-.06-.08.65-.7.72.17,1.3-.93,0-1.71.07-2.11-.65l-5.44,4.31L92,114.49,99.55,108c2.38-2.36,15-13.67,18.08-14.16Z"/><path class="cls-1" d="M102.7,113.62c-.34-1.42-2.87-3.08-3.16-4.2-.08-.33-1.54.08-.65,1.78.58,1.09,1.14,2.35,1.14,2.35s2.68.1,2.67.07Z"/><path class="cls-3" d="M102.7,113.62c-.34-1.42-2.87-3.08-3.16-4.2-.08-.33-1.54.08-.65,1.78.58,1.09,1.14,2.35,1.14,2.35s2.68.1,2.67.07Zm0,0c-.32-1.45-2.87-3.08-3.16-4.2-.08-.33-1.54.08-.65,1.78.58,1.09,1.14,2.35,1.14,2.35a2.36,2.36,0,0,0-.43,1.78c.16,1.11.44,1.11.44,1.11"/><path class="cls-1" d="M96.39,108.48c.69-.69,1.28-.34,1.65.33.27.48.79,1.16.27,1.66s-1.12.22-1.65-.33-.93-1-.27-1.66Z"/><path class="cls-3" d="M96.39,108.48c.69-.69,1.28-.34,1.65.33.27.48.79,1.16.27,1.66s-1.12.22-1.65-.33-.93-1-.27-1.66Z"/><path class="cls-1" d="M95.14,110.58a1.34,1.34,0,0,1,1.77.38c.87,1,.85,1.35.5,1.73s-1.08.13-1.76-.38c-1-.69-1.2-1.13-.51-1.73Z"/><path class="cls-3" d="M95.14,110.58a1.34,1.34,0,0,1,1.77.38c.87,1,.85,1.35.5,1.73s-1.08.13-1.76-.38c-1-.69-1.2-1.13-.51-1.73Z"/><path class="cls-8" d="M122.33,141.63a3.15,3.15,0,0,0,.33,5q-1.6,2.25,0,4.05a2.6,2.6,0,0,0,.45,3.08c-.53-.52,39.38,0,39.46-.15,6.2-8.46.65-26.82.22-27.21-4.74-7.73-9.53-7.14-9.53-7.14a2,2,0,0,0-2.77-1.75c.18-.94-1.18-2.08-1.28-1.51.15-.91-1.4-1.82-1.92-1.31.3,2.49-.6,4.76-1.37,6.79,0,0-4.81.88-7.24-.41a37.59,37.59,0,0,1-6-4.69,11.4,11.4,0,0,0-5.34.48c-2.92,1-8,4.39-8.58,5.32-2-.14-3.14.27-3.43,1.21a8.32,8.32,0,0,0-.12,1.51,2.59,2.59,0,0,1-3.15,0l-.52-.61a2.11,2.11,0,0,0-1.69-.83c-1.13,0,0,.17-1.61-.8s-2-.33-2-.33a12.51,12.51,0,0,1,1.13,5.5c0,3.4-2.77,14,2.28,17.16,7.81,4.93,12.61-3.39,12.61-3.39Z"/><path class="cls-9" d="M122.33,141.63a3.15,3.15,0,0,0,.33,5q-1.6,2.25,0,4.05a2.6,2.6,0,0,0,.45,3.08c-.53-.52,39.38,0,39.46-.15,6.2-8.46.65-26.82.22-27.21-4.74-7.73-9.53-7.14-9.53-7.14a2,2,0,0,0-2.77-1.75c.18-.94-1.18-2.08-1.28-1.51.15-.91-1.4-1.82-1.92-1.31.3,2.49-.6,4.76-1.37,6.79,0,0-4.81.88-7.24-.41a37.59,37.59,0,0,1-6-4.69,11.4,11.4,0,0,0-5.34.48c-2.92,1-8,4.39-8.58,5.32-2-.14-3.14.27-3.43,1.21a8.32,8.32,0,0,0-.12,1.51,2.59,2.59,0,0,1-3.15,0l-.52-.61a2.11,2.11,0,0,0-1.69-.83c-1.13,0,0,.17-1.61-.8s-2-.33-2-.33a12.51,12.51,0,0,1,1.13,5.5c0,3.4-2.77,14,2.28,17.16,7.81,4.93,12.61-3.39,12.61-3.39Z"/><path class="cls-1" d="M128.87,101.11a13.45,13.45,0,1,1,13.45,13.45,13.44,13.44,0,0,1-13.45-13.45Z"/><path class="cls-5" d="M128.87,101.11a13.45,13.45,0,1,1,13.45,13.45,13.44,13.44,0,0,1-13.45-13.45Z"/><path class="cls-3" d="M146,121.47c-1.66,3.93-4,10.76-17.21,18.69a41,41,0,0,1-6.55,1.56m-6.89-18.15s-.83,4.6,1.3,7.63,7,4.84,11.41,4.69a19.59,19.59,0,0,0,14.05-7.17m-23.28-6.44c-.06,2.27,0,5,2.13,6.66a15,15,0,0,0,11.79,2.79c7.63-1.21,12-7.49,12-7.49m-32.77.55c1.57,3.08-.73,9.55,1.2,11.85,1.51,1.82,5,1,6.95.61C126,136,127,140.57,127,140.57m-17.6-17c1,1.13,1,4.43.52,6.8-.82,4-1.29,10.64,2.65,12.47,4.23,2,5.14-2.87,8.77-3.7a3.32,3.32,0,0,1,4.13,1.89m-2.88.76s11.94,2.74,20.87-9.08c4-5.35,5.7-13.3,5.78-16.78m-26.38,30.86c25.44-1.38,27.45-27.4,27.66-29.27m-27.93,33c27.33-1.37,27.05-8.29,30.53-24.46a42.25,42.25,0,0,0,.17-6.83,67.82,67.82,0,0,1-.91,20.25c-1.13,5.19-5.9,14.07-25.15,15.38"/><path class="cls-1" d="M167.45,149.91s14.56.1,14.56,0V130c-.26.06-1-.54-1.11-1.1H151.78c-.11.65-.78,1.2-1.08,1.11v19.92c0,.1,14.56,0,14.56,0Z"/><path class="cls-2" d="M167.45,149.91s14.56.1,14.56,0V130c-.26.06-1-.54-1.11-1.1H151.78c-.11.65-.78,1.2-1.08,1.11v19.92c0,.1,14.56,0,14.56,0Z"/><path class="cls-1" d="M151.78,129.14c2.88-.22,3.94-1.16,5.12-1.34,3.89-.59,5.7.1,9.44,1.07V148.8q-3.81-2.37-9.74-1.31c-1.5.26-2.4,1.23-4.82,1.31V129.14Z"/><path class="cls-3" d="M151.78,129.14c2.88-.22,3.94-1.16,5.12-1.34,3.89-.59,5.7.1,9.44,1.07V148.8q-3.81-2.37-9.74-1.31c-1.5.26-2.4,1.23-4.82,1.31V129.14Z"/><path class="cls-1" d="M180.83,128.87c-2.06,0-3-.82-4.05-1.05-5-1.07-6.29,0-10.51,1.05V148.8c2.84-1.76,6.13-2.12,10.7-1.05,1.11.26,1.8.9,3.86,1.05V128.87Z"/><path class="cls-3" d="M180.83,128.87c-2.06,0-3-.82-4.05-1.05-5-1.07-6.29,0-10.51,1.05V148.8c2.84-1.76,6.13-2.12,10.7-1.05,1.11.26,1.8.9,3.86,1.05V128.87Z"/><path class="cls-1" d="M167.38,149.9c-.83.72-1.57.74-2.22.07l1.09-1.22,1.13,1.15Z"/><path class="cls-3" d="M167.38,149.9c-.83.72-1.57.74-2.22.07l1.09-1.22,1.13,1.15Zm14.58,0c-.92-.13-1.12-.64-1.15-1.09m-30.23,1.1c.78-.12,1.2-.41,1.22-1"/><path class="cls-1" d="M170.26,126.15c.15-1,1.36-.63,1.43-.22l.6,2.65c.06,1.2-.79,1.31-1.43.22a8.65,8.65,0,0,1-.6-2.65Z"/><path class="cls-7" d="M170.26,126.15c.15-1,1.36-.63,1.43-.22l.6,2.65c.06,1.2-.79,1.31-1.43.22a8.65,8.65,0,0,1-.6-2.65Z"/><path class="cls-1" d="M172.4,126.22c-.19-1,1.44-.8,1.45,0a16.68,16.68,0,0,1,0,3.25c-.25,1.19-1.2,1.23-1.45,0a17.52,17.52,0,0,1,0-3.25Z"/><path class="cls-7" d="M172.4,126.22c-.19-1,1.44-.8,1.45,0a16.68,16.68,0,0,1,0,3.25c-.25,1.19-1.2,1.23-1.45,0a17.52,17.52,0,0,1,0-3.25Z"/><path class="cls-1" d="M174.44,125.81c.06-.46,1.49-.23,1.44.18a14.85,14.85,0,0,1-.33,2.7c-.58,1.24-1.49.88-1.44-.18l.33-2.7Z"/><path class="cls-7" d="M174.44,125.81c.06-.46,1.49-.23,1.44.18a14.85,14.85,0,0,1-.33,2.7c-.58,1.24-1.49.88-1.44-.18l.33-2.7Z"/><path class="cls-1" d="M176.28,126c.06-.46,1.33.1,1.28.5a3.11,3.11,0,0,1-.38,1.45c-.64,1-1.37,1-1.22-.27l.32-1.68Z"/><path class="cls-7" d="M176.28,126c.06-.46,1.33.1,1.28.5a3.11,3.11,0,0,1-.38,1.45c-.64,1-1.37,1-1.22-.27l.32-1.68Z"/><path class="cls-7" d="M134.83,105.6c0-5.09,3.33-9.21,7.44-9.21s7.43,4.12,7.43,9.21-3.32,9.22-7.43,9.22-7.44-4.13-7.44-9.22Z"/><path class="cls-3" d="M134.83,105.6c0-5.09,3.33-9.21,7.44-9.21s7.43,4.12,7.43,9.21-3.32,9.22-7.43,9.22-7.44-4.13-7.44-9.22Z"/><path class="cls-10" d="M142.33,111.77c2.39-.19,3.28,1.27,3.26,1.29a22.24,22.24,0,0,0,3.48-4.67s.2-3.09.17-3.1a11.75,11.75,0,0,0-.34-2.36c-.08-.2-.52-1.63-.57-1.71-.06.36-.17.84-.29.83a30.5,30.5,0,0,0-4.85-.43c-.29.06-1-1.54-1-1.58a14.7,14.7,0,0,1-1.12,1.53,6.9,6.9,0,0,0-4.2.47c-.09,0-.24-.42-.34-.73,0,0-.56,1-.64,1.17a12,12,0,0,0-.46,2.83l.14,2.92a22.8,22.8,0,0,0,3.56,4.94s.7-1.6,3.23-1.4Zm7.17-2.8c-.1,1.56-.33,3.6-.86,4.3-.91,1.18-3.88,4.64-6.31,4.64s-5.37-3.46-6.28-4.64c-.54-.7-.75-2.74-.85-4.3-.69,0-1.23-1-1.23-2.21a2.45,2.45,0,0,1,.43-1.63,25.09,25.09,0,0,1-.31-3c.42-5.82,4.21-7.78,8.43-7.78s7.93,3,7.68,7.94c0,.06-.16,1.23-.3,2.52a2.26,2.26,0,0,1,.78,1.94c0,1.12-.52,2.16-1.18,2.21Z"/><path class="cls-3" d="M142.33,111.77c2.39-.19,3.28,1.27,3.26,1.29a22.24,22.24,0,0,0,3.48-4.67s.2-3.09.17-3.1a11.75,11.75,0,0,0-.34-2.36c-.08-.2-.52-1.63-.57-1.71-.06.36-.17.84-.29.83a30.5,30.5,0,0,0-4.85-.43c-.29.06-1-1.54-1-1.58a14.7,14.7,0,0,1-1.12,1.53,6.9,6.9,0,0,0-4.2.47c-.09,0-.24-.42-.34-.73,0,0-.56,1-.64,1.17a12,12,0,0,0-.46,2.83l.14,2.92a22.8,22.8,0,0,0,3.56,4.94s.7-1.6,3.23-1.4Zm7.17-2.8c-.1,1.56-.33,3.6-.86,4.3-.91,1.18-3.88,4.64-6.31,4.64s-5.37-3.46-6.28-4.64c-.54-.7-.75-2.74-.85-4.3-.69,0-1.23-1-1.23-2.21a2.45,2.45,0,0,1,.43-1.63,25.09,25.09,0,0,1-.31-3c.42-5.82,4.21-7.78,8.43-7.78s7.93,3,7.68,7.94c0,.06-.16,1.23-.3,2.52a2.26,2.26,0,0,1,.78,1.94c0,1.12-.52,2.16-1.18,2.21Zm-12.41-2.38a3.4,3.4,0,0,1,1.94-.81,1.88,1.88,0,0,1,1.75.88m1.55,5.11c2.39-.19,3.28,1.27,3.26,1.29a22.24,22.24,0,0,0,3.48-4.67s.2-3.09.17-3.1a11.75,11.75,0,0,0-.34-2.36c-.08-.2-.52-1.63-.57-1.71-.06.36-.17.84-.29.83a30.5,30.5,0,0,0-4.85-.43c-.29.06-1-1.54-1-1.58a14.7,14.7,0,0,1-1.12,1.53,6.9,6.9,0,0,0-4.2.47c-.09,0-.24-.42-.34-.73,0,0-.56,1-.64,1.17a12,12,0,0,0-.46,2.83l.14,2.92a22.8,22.8,0,0,0,3.56,4.94s.7-1.6,3.23-1.4Zm7.17-2.8c-.1,1.56-.33,3.6-.86,4.3-.91,1.18-3.88,4.64-6.31,4.64s-5.37-3.46-6.28-4.64c-.54-.7-.75-2.74-.85-4.3-.69,0-1.23-1-1.23-2.21a2.45,2.45,0,0,1,.43-1.63,25.09,25.09,0,0,1-.31-3c.42-5.82,4.21-7.78,8.43-7.78s7.93,3,7.68,7.94c0,.06-.16,1.23-.3,2.52a2.26,2.26,0,0,1,.78,1.94c0,1.12-.52,2.16-1.18,2.21Z"/><path class="cls-1" d="M136.89,105.1a2.89,2.89,0,0,1,3.24-.59,2.29,2.29,0,0,1,1,.83c.2.15.26.1.16-.14a2,2,0,0,0-1.7-1.16,2.85,2.85,0,0,0-1.53.24,5.72,5.72,0,0,0-1.12.82Z"/><path class="cls-3" d="M136.89,105.1a2.89,2.89,0,0,1,3.24-.59,2.29,2.29,0,0,1,1,.83c.2.15.26.1.16-.14a2,2,0,0,0-1.7-1.16,2.85,2.85,0,0,0-1.53.24,5.72,5.72,0,0,0-1.12.82Z"/><path class="cls-1" d="M138.54,106.32a.62.62,0,0,1,.3-.53,3.75,3.75,0,0,1,.67,0,.63.63,0,0,1,.26.51.62.62,0,1,1-1.23,0Z"/><path class="cls-3" d="M138.54,106.32a.62.62,0,0,1,.3-.53,3.75,3.75,0,0,1,.67,0,.63.63,0,0,1,.26.51.62.62,0,1,1-1.23,0Z"/><path class="cls-1" d="M148.08,105.1a2.88,2.88,0,0,0-3.23-.59,2.28,2.28,0,0,0-1,.83c-.2.15-.26.1-.16-.14a2,2,0,0,1,1.71-1.16,2.89,2.89,0,0,1,1.53.24,5.49,5.49,0,0,1,1.11.82Z"/><path class="cls-3" d="M148.08,105.1a2.88,2.88,0,0,0-3.23-.59,2.28,2.28,0,0,0-1,.83c-.2.15-.26.1-.16-.14a2,2,0,0,1,1.71-1.16,2.89,2.89,0,0,1,1.53.24,5.49,5.49,0,0,1,1.11.82Z"/><path class="cls-1" d="M146.43,106.32a.59.59,0,0,0-.31-.53,3.7,3.7,0,0,0-.66,0,.63.63,0,0,0-.26.51.62.62,0,1,0,1.23,0Z"/><path class="cls-3" d="M146.43,106.32a.59.59,0,0,0-.31-.53,3.7,3.7,0,0,0-.66,0,.63.63,0,0,0-.26.51.62.62,0,1,0,1.23,0Zm1.45.27a3.4,3.4,0,0,0-1.94-.81,1.84,1.84,0,0,0-1.74.88m-.61,7.26a2.27,2.27,0,0,1-1.2.48,2.2,2.2,0,0,1-1.21-.51m-.32-.58c0-.48,1.52-.27,1.53-.26s1.54-.22,1.54.26m-1-6.71V109s.25.1.51.15.51.59.3.62a5.09,5.09,0,0,0-.83.45c-.29.59-.58.59-.85,0a4.77,4.77,0,0,0-.83-.45c-.21,0,0-.58.3-.62a2,2,0,0,0,.5-.17V106.6"/><polygon class="cls-1" points="188.25 163.24 90.28 163.26 90.28 150.39 188.25 150.39 188.25 163.24 188.25 163.24"/><polygon class="cls-9" points="188.25 163.24 90.28 163.26 90.28 150.39 188.25 150.39 188.25 163.24 188.25 163.24"/><polygon class="cls-1" points="188.25 188.93 90.28 188.94 90.28 176.07 188.25 176.07 188.25 188.93 188.25 188.93"/><polygon class="cls-9" points="188.25 188.93 90.28 188.94 90.28 176.07 188.25 176.07 188.25 188.93 188.25 188.93"/><polygon class="cls-1" points="188.25 215.03 90.28 215.03 90.28 202.17 188.25 202.17 188.25 215.03 188.25 215.03"/><polygon class="cls-9" points="188.25 215.03 90.28 215.03 90.28 202.17 188.25 202.17 188.25 215.03 188.25 215.03"/><path class="cls-7" d="M205.84,180.2l.17,6c.76,1.88,1.42,3.09,1.32,4a6,6,0,0,1-3,1.55,11.73,11.73,0,0,0-4.1,2.17c-2,1-4.37.86-5.53-.1a6,6,0,0,0,1.86-2.49l3.15-2.27,1.37-2.66-.27-4.59,5-1.6Z"/><path class="cls-11" d="M205.84,180.2l.17,6c.76,1.88,1.42,3.09,1.32,4a6,6,0,0,1-3,1.55,11.73,11.73,0,0,0-4.1,2.17c-2,1-4.37.86-5.53-.1a6,6,0,0,0,1.86-2.49l3.15-2.27,1.37-2.66-.27-4.59,5-1.6Z"/><path class="cls-1" d="M221.12,181.9l.11,5.2c.9,2.08.76,3.5.45,4.13l-3.78,4.69c-1.33,1.13-5.62.61-7.32-.09.85-1.6,3.1-2.84,3.48-4.32a12.41,12.41,0,0,1,1.72-3.15,19.4,19.4,0,0,0-.12-6.4l5.46-.06Z"/><path class="cls-11" d="M221.12,181.9l.11,5.2c.9,2.08.76,3.5.45,4.13l-3.78,4.69c-1.33,1.13-5.62.61-7.32-.09.85-1.6,3.1-2.84,3.48-4.32a12.41,12.41,0,0,1,1.72-3.15,19.4,19.4,0,0,0-.12-6.4l5.46-.06Z"/><path class="cls-1" d="M186.59,138.12l1.65-3.94,2.3-1.61a15,15,0,0,0,.9-4c0-2.75,2-8.45,3.18-11.08l3.87,1.48a13.2,13.2,0,0,1-.79,5.52c-1.15,3.74-3.23,9.62-3.23,9.62a14.32,14.32,0,0,1-.42,3.38l-.9,2.45c.13,1.13.15,2.49-.79,2.79a.72.72,0,0,1-1.16.54.76.76,0,0,1-1.18-.13c-.42.51-1.34-1.4-1.84-3.14a25.61,25.61,0,0,1,1.08-3.9c-.31.8-1.25,3.08-2.67,2.05Z"/><path class="cls-7" d="M186.59,138.12l1.65-3.94,2.3-1.61a15,15,0,0,0,.9-4c0-2.75,2-8.45,3.18-11.08l3.87,1.48a13.2,13.2,0,0,1-.79,5.52c-1.15,3.74-3.23,9.62-3.23,9.62a14.32,14.32,0,0,1-.42,3.38l-.9,2.45c.13,1.13.15,2.49-.79,2.79a.72.72,0,0,1-1.16.54.76.76,0,0,1-1.18-.13c-.42.51-1.34-1.4-1.84-3.14a25.61,25.61,0,0,1,1.08-3.9c-.31.8-1.25,3.08-2.67,2.05Z"/><path class="cls-3" d="M192.59,138.49l-.53,1.6a5.29,5.29,0,0,1,.15,2.56m-1.08.54c.53-.38.24-1.43-.3-3.12l.4-1.6m-1.3,4.57c.62-.2.44-1.37-.37-3l.31-1.54m-.78-2.26c1.19.5,3.17-.55,3.07-1.76"/><path class="cls-9" d="M219.42,123.5s3.19,28,3.19,31.91.45,27.57.45,27.57c0,1.42-5.59,1.61-5.59.16a3.89,3.89,0,0,0-2.65,0c0,1.48-3.58,1.57-3.58,0a4.22,4.22,0,0,0-3,0c0,1.46-4.08,1.46-4.08,0a3.45,3.45,0,0,0-2.73,0c0,1.56-4,1.59-4.29,0-.39,1.61-3.51.61-4-.52,0,0,3.32-54.46,3.93-56.28.43-1.3,8.85-6.61,8.85-6.61l13.53,3.79Z"/><path class="cls-3" d="M219.42,123.5s3.19,28,3.19,31.91.45,27.57.45,27.57c0,1.42-5.59,1.61-5.59.16a3.89,3.89,0,0,0-2.65,0c0,1.48-3.58,1.57-3.58,0a4.22,4.22,0,0,0-3,0c0,1.46-4.08,1.46-4.08,0a3.45,3.45,0,0,0-2.73,0c0,1.56-4,1.59-4.29,0-.39,1.61-3.51.61-4-.52,0,0,3.32-54.46,3.93-56.28.43-1.3,8.85-6.61,8.85-6.61l13.53,3.79Zm-22.35,59.69c-.28-13.86,1.42-36.34,2-56m2.34,56c-.52-23.76,0-50.72.91-57.9m1.93,57.91c.18-13.64.2-41.38-1.64-58.06m5.75,57.9a460.85,460.85,0,0,1,.15-58m2.73,58c.43-8.39-1.36-50.78-2.73-58m6.35,58-1.51-58m4.09,58c.36-18.11.52-42.29-.69-55.29"/><path class="cls-9" d="M218.38,96.49l2.78,29.37c-2.11,3-27.82,5.14-24.88-3.36,0,0-5.51.06-5.51-.12.3-8.16,4.35-24.31,11.31-26.87.63-2-.58-5.65-.63-5.65,3.4-1,9.65.77,10.61,1,.08,0-.88,3.18,1.69,4.17,2.22.87,4.51,1.43,4.63,1.49Z"/><path class="cls-3" d="M218.38,96.49l2.78,29.37c-2.11,3-27.82,5.14-24.88-3.36,0,0-5.51.06-5.51-.12.3-8.16,4.35-24.31,11.31-26.87.63-2-.58-5.65-.63-5.65,3.4-1,9.65.77,10.61,1,.08,0-.88,3.18,1.69,4.17,2.22.87,4.51,1.43,4.63,1.49Z"/><path class="cls-7" d="M213.83,95c-3.32,9.9-12.81,8.26-11.78.49.64-2-.57-5.63-.62-5.63,3.4-1,9.65.77,10.61,1,.08,0-.78,3.19,1.79,4.18Z"/><path class="cls-3" d="M213.83,95c-3.32,9.9-12.81,8.26-11.78.49.64-2-.57-5.63-.62-5.63,3.4-1,9.65.77,10.61,1,.08,0-.78,3.19,1.79,4.18Zm-11.75.45c-7.9,9.58-5.08,18.33-5.82,26.85"/><path class="cls-7" d="M198.47,79.44a12.53,12.53,0,0,0,.15,3c-1.42-1.24-.81,3.8,1,3.83.1,1.56.32,3.59.85,4.3.91,1.18,3.86,4.64,6.28,4.64s5.39-3.46,6.3-4.64c.53-.71.75-2.74.85-4.3,1.17.49,3-4.48.95-3.83a12.21,12.21,0,0,0,.16-3Z"/><path class="cls-3" d="M198.47,79.44a12.53,12.53,0,0,0,.15,3c-1.42-1.24-.81,3.8,1,3.83.1,1.56.32,3.59.85,4.3.91,1.18,3.86,4.64,6.28,4.64s5.39-3.46,6.3-4.64c.53-.71.75-2.74.85-4.3,1.17.49,3-4.48.95-3.83a12.21,12.21,0,0,0,.16-3Zm7.85,2.74V85.7s-.24.1-.51.14-.52.59-.3.63a4.12,4.12,0,0,1,.83.45c.3.59.59.59.85,0a2.25,2.25,0,0,1,.83-.45c.21,0,0-.59-.31-.63a1.79,1.79,0,0,1-.49-.16l0-3.47"/><path class="cls-1" d="M198.58,80.45c1-8.47,2.84-11.64,8.19-12.85,5.34,1.21,7.14,4.38,8.17,12.85,0,0-16.32,0-16.36,0Z"/><path class="cls-9" d="M198.58,80.45c1-8.47,2.84-11.64,8.19-12.85,5.34,1.21,7.14,4.38,8.17,12.85,0,0-16.32,0-16.36,0Z"/><path class="cls-11" d="M199,79.44s-.51,0-.51,0a12.53,12.53,0,0,0,.15,3,36.92,36.92,0,0,0,1,3.83c.1,1.56.32,3.59.85,4.3.91,1.18,4.48,5.67,6.28,5.67s5.39-4.49,6.3-5.67c.53-.71.75-2.74.85-4.3,0,0,.92-3.83.95-3.83a12.21,12.21,0,0,0,.16-3h-.37s-.12.35-.12.36c-.2,1.89-.72,7.52-2.82,9.91-.62.53-4.3-1.65-4.94-1.64s-4.32,2.17-4.93,1.64c-2.1-2.39-2.63-8-2.81-9.91v-.36Z"/><path class="cls-3" d="M199,79.44s-.51,0-.51,0a12.53,12.53,0,0,0,.15,3,36.92,36.92,0,0,0,1,3.83c.1,1.56.32,3.59.85,4.3.91,1.18,4.48,5.67,6.28,5.67s5.39-4.49,6.3-5.67c.53-.71.75-2.74.85-4.3,0,0,.92-3.83.95-3.83a12.21,12.21,0,0,0,.16-3h-.37s-.12.35-.12.36c-.2,1.89-.72,7.52-2.82,9.91-.62.53-4.3-1.65-4.94-1.64s-4.32,2.17-4.93,1.64c-2.1-2.39-2.63-8-2.81-9.91v-.36Z"/><path class="cls-9" d="M216.34,80.49s-.5-4.87-3.54-5-4.61,4.64-6,4.59-3-4.7-6-4.59-3.53,5-3.53,5Z"/><path class="cls-3" d="M216.34,80.49s-.5-4.87-3.54-5-4.61,4.64-6,4.59-3-4.7-6-4.59-3.53,5-3.53,5Z"/><path class="cls-1" d="M212.63,82.87a3.4,3.4,0,0,0-1.94-.81,1.89,1.89,0,0,0-1.75.89,2.94,2.94,0,0,0,3.69-.08Z"/><path class="cls-3" d="M212.63,82.87a3.4,3.4,0,0,0-1.94-.81,1.89,1.89,0,0,0-1.75.89,2.94,2.94,0,0,0,3.69-.08Z"/><path class="cls-1" d="M211.17,82.6a.61.61,0,0,0-.3-.53,3,3,0,0,0-.67,0,.64.64,0,0,0-.26.5.62.62,0,1,0,1.23,0Z"/><path class="cls-3" d="M211.17,82.6a.61.61,0,0,0-.3-.53,3,3,0,0,0-.67,0,.64.64,0,0,0-.26.5.62.62,0,1,0,1.23,0Z"/><path class="cls-1" d="M201.29,82.87a3.4,3.4,0,0,1,2-.81A1.85,1.85,0,0,1,205,83a2.92,2.92,0,0,1-3.68-.08Z"/><path class="cls-3" d="M201.29,82.87a3.4,3.4,0,0,1,2-.81A1.85,1.85,0,0,1,205,83a2.92,2.92,0,0,1-3.68-.08Z"/><path class="cls-1" d="M202.74,82.6a.62.62,0,0,1,.31-.53,3,3,0,0,1,.67,0,.64.64,0,0,1,.26.5.62.62,0,1,1-1.24,0Z"/><path class="cls-3" d="M202.74,82.6a.62.62,0,0,1,.31-.53,3,3,0,0,1,.67,0,.64.64,0,0,1,.26.5.62.62,0,1,1-1.24,0Z"/><path class="cls-1" d="M208.31,90.18c0-.39-3.18-.39-3.18,0s.7.72,1.58.72,1.6-.32,1.6-.72Z"/><path class="cls-6" d="M213.85,95c-3.32,9.9-12.87,8.19-11.84.42-2.67,6.52.14,11.45,3.2,13.28,4.15-1.53,7.79-5.07,10.16-13.09,0,0-1.53-.6-1.52-.61Z"/><path class="cls-3" d="M213.85,95c-3.32,9.9-12.87,8.19-11.84.42-2.67,6.52.14,11.45,3.2,13.28,4.15-1.53,7.79-5.07,10.16-13.09,0,0-1.53-.6-1.52-.61Z"/><path class="cls-1" d="M225.84,121.6a40.69,40.69,0,0,1-1.23,10.61l-1.79,8.11-.39,5.78-.59,1.57c-.66,1.44-1.33.72-1.33.72-.47.9-1.55.67-1.29-.26-.59,1.42-1.64,1.06-1.51.39-.69.4-1.06-.16-.87-1.12l.65-1.89.06-2.86s-1,2.12-2.32,1.59c.74-1,.71-2.44,1.14-3.92l2.35-1.74c1.62-6.33-.74-11.17,1.66-18.53,1.21.17,5.46,1.55,5.46,1.55Z"/><path class="cls-7" d="M225.84,121.6a40.69,40.69,0,0,1-1.23,10.61l-1.79,8.11-.39,5.78-.59,1.57c-.66,1.44-1.33.72-1.33.72-.47.9-1.55.67-1.29-.26-.59,1.42-1.64,1.06-1.51.39-.69.4-1.06-.16-.87-1.12l.65-1.89.06-2.86s-1,2.12-2.32,1.59c.74-1,.71-2.44,1.14-3.92l2.35-1.74c1.62-6.33-.74-11.17,1.66-18.53,1.21.17,5.46,1.55,5.46,1.55Z"/><path class="cls-12" d="M208.31,90.18c0-.39-3.18-.39-3.18,0s.7.72,1.58.72,1.6-.32,1.6-.72Z"/><path class="cls-3" d="M221.5,143.41l-.1,2.6-.88,2.23m-.18-4.65-.29,2.5-.9,2.21m0-5.1-.22,2.56-1.16,2.77"/><path class="cls-9" d="M226.52,123.6H213.45s.16-23.73,5.2-27.07c3.52.92,5.82,6,6.5,7.93,2.36,6.61,1.38,19.1,1.37,19.15Z"/><path class="cls-3" d="M226.52,123.6H213.45s.16-23.73,5.2-27.07c3.52.92,5.82,6,6.5,7.93,2.36,6.61,1.38,19.1,1.37,19.15Z"/><path class="cls-11" d="M72.63,179.59l-.17,5.95c-.76,1.89-1.41,3.1-1.33,4a6.12,6.12,0,0,0,3,1.55,12,12,0,0,1,4.1,2.17c2,1,4.37.86,5.53-.1a6.23,6.23,0,0,1-1.86-2.49l-3.15-2.27-1.37-2.66.27-4.59-5-1.6Z"/><path class="cls-3" d="M72.63,179.59l-.17,5.95c-.76,1.89-1.41,3.1-1.33,4a6.12,6.12,0,0,0,3,1.55,12,12,0,0,1,4.1,2.17c2,1,4.37.86,5.53-.1a6.23,6.23,0,0,1-1.86-2.49l-3.15-2.27-1.37-2.66.27-4.59-5-1.6Z"/><path class="cls-11" d="M56.74,181.29l-.1,5.2c-.91,2.08-.76,3.5-.45,4.13L60,195.3c1.32,1.14,5.61.61,7.32-.08-.86-1.6-3.11-2.84-3.48-4.33a12.46,12.46,0,0,0-1.73-3.14,19.07,19.07,0,0,1,.13-6.4l-5.47-.06Z"/><path class="cls-3" d="M56.74,181.29l-.1,5.2c-.91,2.08-.76,3.5-.45,4.13L60,195.3c1.32,1.14,5.61.61,7.32-.08-.86-1.6-3.11-2.84-3.48-4.33a12.46,12.46,0,0,0-1.73-3.14,19.07,19.07,0,0,1,.13-6.4l-5.47-.06Z"/><path class="cls-9" d="M57.08,120.93s-1.82,29.94-1.82,33.87-.45,27.57-.45,27.57c0,1.41,5.58,1.61,5.58.16a3.92,3.92,0,0,1,2.66,0c0,1.49,3.57,1.57,3.57,0a4.25,4.25,0,0,1,3,0c0,1.47,4.07,1.47,4.07,0a3.49,3.49,0,0,1,2.73,0c0,1.55,4,1.59,4.3,0,.39,1.61,3.5.6,4-.51,0,0-3.32-54.47-3.92-56.29C80.4,124.4,72,119.1,72,119.1l-14.89,1.83Z"/><path class="cls-3" d="M57.08,120.93s-1.82,29.94-1.82,33.87-.45,27.57-.45,27.57c0,1.41,5.58,1.61,5.58.16a3.92,3.92,0,0,1,2.66,0c0,1.49,3.57,1.57,3.57,0a4.25,4.25,0,0,1,3,0c0,1.47,4.07,1.47,4.07,0a3.49,3.49,0,0,1,2.73,0c0,1.55,4,1.59,4.3,0,.39,1.61,3.5.6,4-.51,0,0-3.32-54.47-3.92-56.29C80.4,124.4,72,119.1,72,119.1l-14.89,1.83Zm23.71,61.65c.28-13.87-1.4-36.35-1.94-56m-2.34,55.95c.51-23.76,0-50.72-.91-57.9m-1.94,57.91c-.18-13.65-.2-41.38,1.65-58.06m-5.76,57.9a457.27,457.27,0,0,0-.15-58m-2.72,58c-.43-8.39,1.36-50.77,2.72-58m-6.35,58,1.51-58m-4.08,58c-.37-18.11.89-45.51,3.78-58.34"/><path class="cls-7" d="M91.27,137.5l-1.65-3.95L87.33,132a14.79,14.79,0,0,1-.91-4,35.61,35.61,0,0,0-2.71-10.77l-4.33,1.16a13.09,13.09,0,0,0,.78,5.53c1.15,3.74,3.23,9.61,3.23,9.61a14.89,14.89,0,0,0,.42,3.39l.91,2.44c-.14,1.14-.17,2.5.78,2.8a.73.73,0,0,0,1.16.54.75.75,0,0,0,1.18-.13c.42.5,1.34-1.4,1.85-3.13a26.18,26.18,0,0,0-1.09-3.91c.31.8,1.26,3.08,2.67,2.05Z"/><path class="cls-3" d="M91.27,137.5l-1.65-3.95L87.33,132a14.79,14.79,0,0,1-.91-4,35.61,35.61,0,0,0-2.71-10.77l-4.33,1.16a13.09,13.09,0,0,0,.78,5.53c1.15,3.74,3.23,9.61,3.23,9.61a14.89,14.89,0,0,0,.42,3.39l.91,2.44c-.14,1.14-.17,2.5.78,2.8a.73.73,0,0,0,1.16.54.75.75,0,0,0,1.18-.13c.42.5,1.34-1.4,1.85-3.13a26.18,26.18,0,0,0-1.09-3.91c.31.8,1.26,3.08,2.67,2.05Zm-6,.37.52,1.6a5.11,5.11,0,0,0-.15,2.55m1.08.55c-.53-.38-.24-1.43.3-3.12l-.4-1.6m1.3,4.57c-.62-.2-.45-1.37.37-3L88,137.84m.79-2.27c-1.2.51-3.18-.55-3.08-1.75"/><path class="cls-1" d="M59.49,95.87,56.7,125.24c2.12,3,27.82,5.15,24.88-3.36,0,0,5.52.06,5.52-.11-.3-8.17-4.36-24.31-11.31-26.88-.64-2,.57-5.63.62-5.63-3.39-1-9.64.76-10.61,1-.07,0,.88,3.17-1.68,4.17-2.23.86-4.52,1.43-4.63,1.48Z"/><path class="cls-9" d="M59.49,95.87,56.7,125.24c2.12,3,27.82,5.15,24.88-3.36,0,0,5.52.06,5.52-.11-.3-8.17-4.36-24.31-11.31-26.88-.64-2,.57-5.63.62-5.63-3.39-1-9.64.76-10.61,1-.07,0,.88,3.17-1.68,4.17-2.23.86-4.52,1.43-4.63,1.48Z"/><path class="cls-7" d="M64,94.4c3.31,9.9,12.81,8.26,11.77.49-.64-2,.57-5.63.62-5.63-3.39-1-9.64.76-10.61,1-.07,0,.78,3.19-1.78,4.18Z"/><path class="cls-3" d="M64,94.4c3.31,9.9,12.81,8.26,11.77.49-.64-2,.57-5.63.62-5.63-3.39-1-9.64.76-10.61,1-.07,0,.78,3.19-1.78,4.18Zm11.77.42c7.89,9.57,5.07,18.33,5.82,26.84"/><path class="cls-7" d="M79.39,78.83a11.48,11.48,0,0,1-.15,3c1.43-1.25.82,3.8-.95,3.83-.1,1.56-.32,3.6-.85,4.29-.92,1.18-3.86,4.65-6.29,4.65S65.77,91.13,64.86,90c-.53-.69-.75-2.73-.85-4.29-1.17.48-3-4.48-1-3.83a12.53,12.53,0,0,1-.15-3Z"/><path class="cls-3" d="M79.39,78.83a11.48,11.48,0,0,1-.15,3c1.43-1.25.82,3.8-.95,3.83-.1,1.56-.32,3.6-.85,4.29-.92,1.18-3.86,4.65-6.29,4.65S65.77,91.13,64.86,90c-.53-.69-.75-2.73-.85-4.29-1.17.48-3-4.48-1-3.83a12.53,12.53,0,0,1-.15-3Zm-7.84,2.74v3.52s.24.1.51.14.51.59.3.63a4.12,4.12,0,0,0-.83.45c-.3.58-.59.58-.85,0a2.33,2.33,0,0,0-.83-.45c-.21,0,0-.59.3-.63a1.63,1.63,0,0,0,.5-.17l0-3.46"/><path class="cls-9" d="M79.29,79.83c-1-8.46-2.85-11.63-8.19-12.84C65.76,68.2,64,71.37,62.92,79.83c0,0,16.32,0,16.37,0Z"/><path class="cls-3" d="M79.29,79.83c-1-8.46-2.85-11.63-8.19-12.84C65.76,68.2,64,71.37,62.92,79.83c0,0,16.32,0,16.37,0Z"/><path class="cls-1" d="M78.89,78.83h.5a11.48,11.48,0,0,1-.15,3,34.58,34.58,0,0,1-.95,3.83c-.1,1.56-.32,3.6-.85,4.29-.92,1.18-4.48,5.68-6.29,5.68s-5.38-4.5-6.29-5.68c-.53-.69-.75-2.73-.85-4.29,0,0-.92-3.83-1-3.83a12.53,12.53,0,0,1-.15-3h.36a3.82,3.82,0,0,1,.13.36c.19,1.88.72,7.52,2.81,9.91.62.52,4.31-1.65,4.94-1.64s4.32,2.16,4.94,1.64c2.09-2.39,2.62-8,2.81-9.91v-.36Z"/><path class="cls-11" d="M78.89,78.83h.5a11.48,11.48,0,0,1-.15,3,34.58,34.58,0,0,1-.95,3.83c-.1,1.56-.32,3.6-.85,4.29-.92,1.18-4.48,5.68-6.29,5.68s-5.38-4.5-6.29-5.68c-.53-.69-.75-2.73-.85-4.29,0,0-.92-3.83-1-3.83a12.53,12.53,0,0,1-.15-3h.36a3.82,3.82,0,0,1,.13.36c.19,1.88.72,7.52,2.81,9.91.62.52,4.31-1.65,4.94-1.64s4.32,2.16,4.94,1.64c2.09-2.39,2.62-8,2.81-9.91v-.36Z"/><path class="cls-9" d="M61.52,79.88s.51-4.87,3.55-5,4.6,4.64,6,4.6,2.95-4.7,6-4.6,3.54,5,3.54,5Z"/><path class="cls-3" d="M61.52,79.88s.51-4.87,3.55-5,4.6,4.64,6,4.6,2.95-4.7,6-4.6,3.54,5,3.54,5Z"/><path class="cls-1" d="M65.23,82.26a3.37,3.37,0,0,1,2-.81,1.86,1.86,0,0,1,1.74.89,3,3,0,0,1-3.69-.08Z"/><path class="cls-13" d="M65.23,82.26a3.37,3.37,0,0,1,2-.81,1.86,1.86,0,0,1,1.74.89,3,3,0,0,1-3.69-.08Z"/><path class="cls-1" d="M66.69,82a.6.6,0,0,1,.31-.53,3,3,0,0,1,.66,0,.6.6,0,0,1,.26.5.61.61,0,0,1-.61.62.62.62,0,0,1-.62-.62Z"/><path class="cls-3" d="M66.69,82a.6.6,0,0,1,.31-.53,3,3,0,0,1,.66,0,.6.6,0,0,1,.26.5.61.61,0,0,1-.61.62.62.62,0,0,1-.62-.62Z"/><path class="cls-1" d="M76.58,82.26a3.33,3.33,0,0,0-2-.81,1.88,1.88,0,0,0-1.74.89,3,3,0,0,0,3.69-.08Z"/><path class="cls-13" d="M76.58,82.26a3.33,3.33,0,0,0-2-.81,1.88,1.88,0,0,0-1.74.89,3,3,0,0,0,3.69-.08Z"/><path class="cls-1" d="M75.12,82a.61.61,0,0,0-.3-.53,3,3,0,0,0-.67,0,.6.6,0,0,0-.26.5.62.62,0,1,0,1.23,0Z"/><path class="cls-3" d="M75.12,82a.61.61,0,0,0-.3-.53,3,3,0,0,0-.67,0,.6.6,0,0,0-.26.5.62.62,0,1,0,1.23,0Z"/><path class="cls-1" d="M69.55,89.57c0-.4,3.19-.4,3.19,0s-.71.72-1.59.72-1.6-.32-1.6-.72Z"/><path class="cls-6" d="M64,94.4c3.31,9.9,12.87,8.2,11.84.42,2.67,6.52-.14,11.44-3.21,13.27C68.5,106.57,64.87,103,62.5,95c0,0,1.53-.6,1.52-.61Z"/><path class="cls-3" d="M64,94.4c3.31,9.9,12.87,8.2,11.84.42,2.67,6.52-.14,11.44-3.21,13.27C68.5,106.57,64.87,103,62.5,95c0,0,1.53-.6,1.52-.61Z"/><path class="cls-2" d="M64.57,145.56a3.38,3.38,0,0,1,2.48-2.23V123.1H51.47a2.29,2.29,0,0,0-2.53,2.13v20.34Z"/><path class="cls-14" d="M64.57,145.56a3.38,3.38,0,0,1,2.48-2.23V123.1H51.47a2.29,2.29,0,0,0-2.53,2.13v20.34Z"/><path class="cls-3" d="M67.23,123.15a3.45,3.45,0,0,0-2.62,2.12H49m15.58,0v20.26"/><path class="cls-7" d="M52.53,119.07A82,82,0,0,0,52.7,129c.42,2.68,2.1,11.37,2.1,11.37-.4,1.52.17,5.77.17,5.77.08.64,1,.86,1.28.33.38.59,1.17.67,1.41.23.31.5,1.39.44,1.53-.12.34.53,1.61.44,1.44-.55l-.13-1.23s1.07,1.48,2,.6c-.75-.73-1-2.92-1.44-3.93L59.3,140A54.23,54.23,0,0,1,59,129.82c.31-3.93-.72-5.24-1.06-7.33a5.45,5.45,0,0,1,.48-3.42c-.19-.14-5.93,0-5.93,0Z"/><path class="cls-3" d="M52.53,119.07A82,82,0,0,0,52.7,129c.42,2.68,2.1,11.37,2.1,11.37-.4,1.52.17,5.77.17,5.77.08.64,1,.86,1.28.33.38.59,1.17.67,1.41.23.31.5,1.39.44,1.53-.12.34.53,1.61.44,1.44-.55l-.13-1.23s1.07,1.48,2,.6c-.75-.73-1-2.92-1.44-3.93L59.3,140A54.23,54.23,0,0,1,59,129.82c.31-3.93-.72-5.24-1.06-7.33a5.45,5.45,0,0,1,.48-3.42c-.19-.14-5.93,0-5.93,0Z"/><path class="cls-1" d="M51.34,123H64.42s-.16-23.73-5.21-27.08c-3.52.93-5.81,6-6.49,7.94-2.37,6.61-1.38,19.09-1.38,19.15Z"/><path class="cls-9" d="M51.34,123H64.42s-.16-23.73-5.21-27.08c-3.52.93-5.81,6-6.49,7.94-2.37,6.61-1.38,19.09-1.38,19.15Z"/><polygon class="cls-1" points="30.3 150.03 21.62 153.24 18.4 161.93 15.2 153.24 6.51 150.03 15.2 146.82 18.4 138.14 21.62 146.82 30.3 150.03 30.3 150.03"/><polygon class="cls-15" points="30.3 150.03 21.62 153.24 18.4 161.93 15.2 153.24 6.51 150.03 15.2 146.82 18.4 138.14 21.62 146.82 30.3 150.03 30.3 150.03"/><polygon class="cls-15" points="269.94 150.03 261.26 153.24 258.05 161.93 254.83 153.24 246.15 150.03 254.83 146.82 258.05 138.14 261.26 146.82 269.94 150.03 269.94 150.03"/><polygon class="cls-3" points="269.94 150.03 261.26 153.24 258.05 161.93 254.83 153.24 246.15 150.03 254.83 146.82 258.05 138.14 261.26 146.82 269.94 150.03 269.94 150.03"/><path class="cls-12" d="M69.55,89.57c0-.4,3.19-.4,3.19,0s-.71.72-1.59.72-1.6-.32-1.6-.72Z"/><path class="cls-3" d="M47.06,50.17a5.56,5.56,0,0,0-1.63,4,5,5,0,0,0,1.5,3.77,5.94,5.94,0,0,0,4.22,1.79,5.6,5.6,0,0,0,5.59-5.78,6,6,0,0,0-1.94-4.16A5,5,0,0,0,51,48.41a5.55,5.55,0,0,0-3.92,1.76Zm-3.64-3.52a11.27,11.27,0,0,1,7.43-3.55,9.56,9.56,0,0,1,7.7,2.75,10.65,10.65,0,0,1,.26,15.66A10.91,10.91,0,0,1,51,65.11a10.8,10.8,0,0,1-7.9-3.3,9.57,9.57,0,0,1-3-7.61,11.24,11.24,0,0,1,3.29-7.55Z"/></g></g></svg>